<svg width="38" height="40" viewBox="0 0 38 40" fill="none" xmlns="http://www.w3.org/2000/svg">
<path d="M11.1213 6.25004C11.1213 4.64004 12.3627 3.33337 13.8922 3.33337H32.0625C33.592 3.33337 34.8333 4.64004 34.8333 6.25004V25.4134C34.8333 26.1869 34.5414 26.9288 34.0218 27.4758C33.5021 28.0228 32.7974 28.33 32.0625 28.33H13.8922C13.1573 28.33 12.4525 28.0228 11.9329 27.4758C11.4133 26.9288 11.1213 26.1869 11.1213 25.4134V6.25004ZM13.8922 5.83337C13.7872 5.83337 13.6865 5.87727 13.6123 5.95541C13.538 6.03355 13.4963 6.13953 13.4963 6.25004V25.4134C13.4963 25.645 13.6737 25.83 13.8922 25.83H32.0625C32.1675 25.83 32.2682 25.7861 32.3424 25.708C32.4166 25.6299 32.4583 25.5239 32.4583 25.4134V6.25004C32.4583 6.13953 32.4166 6.03355 32.3424 5.95541C32.2682 5.87727 32.1675 5.83337 32.0625 5.83337H13.8922Z" fill="#1A191E" fill-opacity="0.5"/>
<path d="M3.16016 17.9149C3.15995 17.5318 3.23146 17.1523 3.37062 16.7982C3.50977 16.4442 3.71384 16.1225 3.97116 15.8514C4.22847 15.5804 4.534 15.3654 4.87027 15.2188C5.20655 15.0721 5.56699 14.9966 5.93099 14.9966H8.31391C8.62885 14.9966 8.9309 15.1283 9.1536 15.3627C9.3763 15.5971 9.50141 15.9151 9.50141 16.2466C9.50141 16.5781 9.3763 16.896 9.1536 17.1305C8.9309 17.3649 8.62885 17.4966 8.31391 17.4966H5.93099C5.82601 17.4966 5.72533 17.5405 5.65109 17.6186C5.57686 17.6968 5.53516 17.8027 5.53516 17.9132L5.54307 33.7499C5.54307 33.9799 5.71882 34.1666 5.93891 34.1666H20.9806C21.0856 34.1666 21.1862 34.1227 21.2605 34.0445C21.3347 33.9664 21.3764 33.8604 21.3764 33.7499V31.2332C21.3764 30.9017 21.5015 30.5838 21.7242 30.3494C21.9469 30.1149 22.249 29.9832 22.5639 29.9832C22.8789 29.9832 23.1809 30.1149 23.4036 30.3494C23.6263 30.5838 23.7514 30.9017 23.7514 31.2332V33.7499C23.7514 34.5235 23.4595 35.2653 22.9398 35.8123C22.4202 36.3593 21.7154 36.6666 20.9806 36.6666H5.93891C5.20404 36.6666 4.49926 36.3593 3.97963 35.8123C3.46 35.2653 3.16807 34.5235 3.16807 33.7499L3.16016 17.9149Z" fill="#1A191E" fill-opacity="0.5"/>
</svg>
