<svg width="46" height="46" viewBox="0 0 46 46" fill="none" xmlns="http://www.w3.org/2000/svg">
<path d="M23 46C35.7025 46 46 35.7025 46 23C46 10.2975 35.7025 0 23 0C10.2975 0 0 10.2975 0 23C0 35.7025 10.2975 46 23 46Z" fill="#988430"/>
<path d="M23.0015 45.2633C35.2972 45.2633 45.2648 35.2957 45.2648 23.0001C45.2648 10.7044 35.2972 0.736816 23.0015 0.736816C10.7059 0.736816 0.738281 10.7044 0.738281 23.0001C0.738281 35.2957 10.7059 45.2633 23.0015 45.2633Z" fill="#7A6A2A"/>
<path d="M23.0012 44.7939C35.0378 44.7939 44.7954 35.0364 44.7954 22.9998C44.7954 10.9632 35.0378 1.20557 23.0012 1.20557C10.9646 1.20557 1.20703 10.9632 1.20703 22.9998C1.20703 35.0364 10.9646 44.7939 23.0012 44.7939Z" fill="#BA9F33"/>
<path fill-rule="evenodd" clip-rule="evenodd" d="M10.0566 20.5441C9.92631 20.4252 9.78868 20.3059 9.66209 20.1869C9.5355 20.0679 9.40547 19.9487 9.2752 19.8297L8.88806 19.4617C8.82477 19.3984 8.75779 19.3427 8.69449 19.2792C8.6312 19.2235 8.55686 19.1602 8.49357 19.1043C7.97984 18.6168 7.46317 18.1293 6.95655 17.6416C7.48132 18.1217 7.99505 18.5984 8.51982 19.0856L8.7021 19.2682C8.7654 19.3312 8.83237 19.3871 8.89567 19.4504L9.28256 19.8076C9.41283 19.9266 9.53942 20.0459 9.66969 20.1756C9.79997 20.3054 9.92656 20.4249 10.0568 20.5436L10.0566 20.5441ZM3.23853 20.4705C3.23853 20.4705 5.10674 20.6639 6.01864 20.7941C6.86333 20.9134 9.50581 21.3189 9.50581 21.3189L3.23853 20.4705ZM3.23853 20.4705C3.76329 20.5152 4.28806 20.5709 4.81283 20.6268C5.08073 20.6528 5.3376 20.6825 5.59446 20.7085L5.98871 20.7534C6.11899 20.7718 6.24558 20.7905 6.37585 20.8091L7.93911 21.0584L8.7205 21.1886C8.97736 21.2333 9.23423 21.2819 9.50213 21.3265C9.24527 21.3005 8.97736 21.2632 8.7205 21.2259L7.93911 21.1143L6.37585 20.8837C6.24558 20.865 6.11899 20.8388 5.98871 20.8204L5.59422 20.775C5.33735 20.749 5.06945 20.7117 4.81259 20.6818C4.28782 20.6187 3.76305 20.5515 3.23828 20.4698L3.23853 20.4705ZM9.31985 21.8056C9.31985 21.8056 7.32504 22.312 6.65136 22.5056C5.98896 22.6879 3.98287 23.2983 3.98287 23.2983L9.3196 21.8059L9.31985 21.8056Z" fill="#CFB66C"/>
<path fill-rule="evenodd" clip-rule="evenodd" d="M9.31786 21.8052C8.87504 21.9355 8.43466 22.0621 7.98546 22.1813L6.65305 22.5385C6.21023 22.6688 5.76985 22.7954 5.32825 22.9257L4.66585 23.108C4.44628 23.1713 4.22303 23.2269 3.99609 23.2905C4.21542 23.2169 4.43892 23.1416 4.65849 23.0783L5.32089 22.8663C5.76372 22.7284 6.20409 22.5981 6.64569 22.4605C7.09588 22.3489 7.53895 22.2296 7.98914 22.1217C8.417 22.0137 8.86743 21.906 9.31786 21.8054V21.8052ZM4.26032 24.526C4.47965 24.4441 7.0105 23.2645 7.59857 22.989C7.89297 22.8511 8.74869 22.5473 8.74869 22.5473L4.26032 24.526Z" fill="#CFB66C"/>
<path fill-rule="evenodd" clip-rule="evenodd" d="M4.26196 24.5259C4.45529 24.4523 4.63781 24.3622 4.82378 24.2766L5.37455 24.0198L6.48002 23.4876C6.84802 23.3127 7.20572 23.1196 7.58525 22.9553C7.77882 22.8736 7.97238 22.8066 8.16571 22.7433L8.46011 22.6503C8.56045 22.6243 8.65368 22.5944 8.75451 22.5684C8.38651 22.7433 7.99913 22.8922 7.63064 23.0632C7.26264 23.2457 6.88629 23.3946 6.50652 23.5583L5.38265 24.0531C5.00532 24.206 4.63732 24.3696 4.26172 24.5259H4.26196ZM4.5073 25.5563C4.5073 25.5563 6.79969 24.2128 7.58868 23.781C8.00182 23.5504 9.33791 22.8878 9.33791 22.8878L4.5073 25.5563Z" fill="#CFB66C"/>
<path fill-rule="evenodd" clip-rule="evenodd" d="M4.50781 25.5567C4.8947 25.3185 5.28919 25.0766 5.68369 24.831L6.27248 24.4736C6.47341 24.3546 6.66698 24.243 6.87183 24.124C7.07276 24.0047 7.26632 23.8857 7.47093 23.7741C7.56833 23.714 7.67039 23.6617 7.77612 23.6178L8.08868 23.4616C8.50182 23.2606 8.91495 23.0558 9.35042 22.8809C8.95592 23.1304 8.55015 23.3426 8.14461 23.5619C7.94369 23.6735 7.73883 23.7741 7.53791 23.8857C7.33698 23.9974 7.14341 24.1166 6.93856 24.2246C6.73763 24.3435 6.54407 24.4552 6.33946 24.5631L5.73275 24.8943L4.5083 25.5567H4.50781ZM9.31975 23.1821C9.31975 23.1821 7.89437 24.2763 7.4329 24.6262C6.97144 24.976 5.61303 25.9586 5.61303 25.9586L9.31975 23.1821Z" fill="#CFB66C"/>
<path fill-rule="evenodd" clip-rule="evenodd" d="M17.4989 32.0067L16.7695 30.626L17.1937 28.8991L20.2194 27.7306L18.9317 25.0883L19.5681 22.4198L20.7628 20.0303L24.4549 19.4498L27.1678 16.8633L33.0259 17.3061L34.1758 23.5697L31.9614 31.456L30.6999 35.5388L25.5861 35.7324L23.2118 34.0874L20.4316 32.926L17.4989 32.0067Z" fill="#E2CC85"/>
<path fill-rule="evenodd" clip-rule="evenodd" d="M26.4704 31.9616C26.4704 31.9616 25.7631 32.2854 24.5568 32.2108C24.2077 31.742 21.7627 31.5224 21.7627 31.5224C21.7627 31.5224 21.4575 31.4294 20.9178 31.6527C20.3746 31.8735 19.8609 31.8463 19.3808 31.9652C18.9007 32.0842 18.424 31.4591 18.056 31.3289C17.688 31.1912 17.2 30.86 17.2 30.86L16.1696 30.7594L14.1005 29.8848L10.8133 26.6099L9.92004 28.0083L9.64453 29.7388L10.6384 31.7896L13.3142 34.2272L18.5319 35.552L21.6246 34.6409L25.4988 33.0033L26.4704 31.9613V31.9616Z" fill="#F1D789"/>
<path fill-rule="evenodd" clip-rule="evenodd" d="M7.92978 20.3874L8.59218 18.3816L9.38143 17.0862L11.9231 16.874L11.1601 19.0997L9.03526 22.881L9.91725 26.2566L8.35421 27.0379L7.87384 26.3012L7.48694 24.6116L7.46094 22.7134L7.92978 20.3874Z" fill="#F4ECB4"/>
<path fill-rule="evenodd" clip-rule="evenodd" d="M10.7831 31.8239L10.2956 31.1429C10.2956 31.1429 10.1654 30.819 10.24 30.5362C10.3136 30.2496 10.303 30.231 10.266 30.123C10.2289 30.0151 9.91611 29.6429 9.93476 29.3227C9.95316 28.9989 9.90875 28.891 10.1467 28.6343C10.396 28.3851 10.3217 27.9533 10.3217 27.9533L10.6455 28.1542L10.7191 28.0426C10.7191 28.0426 10.8381 28.1356 10.8381 28.2808C10.8641 28.0799 10.7561 27.1493 11.0017 26.9374C11.2473 26.7254 11.6828 27.931 11.6828 27.931L11.4149 26.1817L10.7262 24.3881L9.50175 22.7505L9.42815 20.9453V20.7891C9.42815 20.7891 8.86609 21.6526 8.70981 22.3347C8.59818 22.8035 8.86609 23.3729 8.8104 24.0466C8.7655 24.7166 8.70981 24.6643 8.87345 24.9298C9.03708 25.1952 9.43551 25.7411 9.27923 26.1356C9.1416 26.4744 8.67252 26.2362 8.67252 26.2362C8.67252 26.2362 8.57954 26.5115 8.45295 26.612C8.40829 26.4484 8.35996 26.3441 8.27066 26.244C8.26306 26.3073 8.24466 26.393 8.24466 26.393C8.24466 26.393 8.16272 26.1361 8.08078 25.8123C7.96939 25.3807 7.85016 24.8113 7.74221 24.5061C7.69756 24.681 7.58594 25.2132 7.58594 25.2132L7.64923 26.0321L7.95443 27.156L8.24883 27.892L8.53538 28.7926L8.78439 29.3976L8.98532 29.859L9.16024 30.8975L10.0049 31.7905L10.4554 31.9917L10.7826 31.8242L10.7831 31.8239Z" fill="#F3E19D"/>
<path fill-rule="evenodd" clip-rule="evenodd" d="M8.37498 18.7497C8.37498 18.7497 7.76826 19.7801 7.59358 20.8188C7.41891 21.8576 7.26238 22.9552 7.37278 24.3693C7.48441 25.7949 7.69662 26.6693 7.86787 27.2946C8.16227 28.3331 8.92477 29.7772 8.92477 29.7772L8.95078 29.7212C8.82261 29.4783 8.72032 29.2226 8.64558 28.9582C8.54499 28.5637 8.5077 28.0949 8.41472 27.8827C8.33278 27.6707 8.19515 27.4882 8.12817 27.2277C8.06487 26.9784 8.05457 26.5839 7.86026 26.29C7.77832 26.1708 7.67773 25.8582 7.64805 25.5457C7.61076 25.0766 7.66669 24.5518 7.62204 24.1203C7.5401 23.4019 7.48441 22.9145 7.55875 22.5384C7.63308 22.1623 8.02047 21.0946 8.25869 20.246C8.41497 19.7025 8.32174 19.2448 8.60829 18.772C8.89484 18.3032 9.07001 17.89 9.13306 17.6035C9.20666 17.3429 8.374 18.7497 8.374 18.7497H8.37498Z" fill="#F2E8B0"/>
<path fill-rule="evenodd" clip-rule="evenodd" d="M11.2493 18.3364C11.2493 18.3364 10.9367 18.4297 10.7878 18.5933C10.6389 18.7496 10.5756 18.8798 10.3747 19.1441C10.1737 19.4083 10.1624 19.6242 9.99856 19.9554C9.83492 20.2792 9.47378 20.7667 9.42913 20.9416C9.38448 21.1165 9.31015 21.9352 9.21716 22.3223C9.13522 22.7094 9.31014 23.1858 9.31014 23.1858L9.52212 23.141C9.52212 23.141 9.52212 23.4165 9.73433 23.6027C9.9463 23.7849 9.9836 22.9847 9.9836 22.9847L10.7763 20.3089L11.9708 19.4976L12.1011 18.8425L11.2488 18.3364H11.2493Z" fill="#F5EEC0"/>
<path fill-rule="evenodd" clip-rule="evenodd" d="M11.8324 19.5501C11.8324 19.5501 11.2704 19.5872 10.9951 19.7884C10.8835 19.8701 10.8388 19.937 10.7199 20.0376C10.5003 20.2199 10.2768 20.3875 10.1691 20.6264C10.0499 20.8644 9.9196 21.2255 9.8303 21.9066C9.79301 22.1931 9.79301 22.4573 9.767 22.6882C9.72971 23.0008 9.67402 23.25 9.70371 23.4242C9.741 23.7814 10.1095 23.9676 10.1453 24.3731L10.9083 23.9863L11.6266 21.1539L13.1525 20.1971L12.289 19.2295L11.8314 19.5484L11.8324 19.5501Z" fill="#E6DB9D"/>
<path fill-rule="evenodd" clip-rule="evenodd" d="M7.80493 38.6226C7.80812 38.5947 7.81131 38.5667 7.8145 38.538C7.92588 37.5812 7.94477 36.856 8.02647 36.4019C8.14546 35.7581 8.2274 35.5187 8.20875 35.2778C8.18275 34.8909 8.15306 34.608 8.19035 34.3102C8.24605 33.9157 8.63318 33.4468 8.62214 33.123C8.61454 32.8661 8.48427 32.6988 8.37264 32.5425C8.26101 32.3863 8.17171 32.256 8.17171 32.256C8.17171 32.256 8.9347 31.7312 8.92734 29.6172C8.94292 29.6216 8.95792 29.6278 8.97199 29.6358L9.34785 30.7038L9.60471 31.0163L10.591 32.8549L11.8601 34.0869L13.7357 35.3484L14.9118 36.6283L15.0308 40.0412L13.4938 42.036L13.2421 42.4918C11.2423 41.4879 9.40844 40.1829 7.80469 38.6224L7.80493 38.6226Z" fill="#E5CB7A"/>
<path fill-rule="evenodd" clip-rule="evenodd" d="M12.5 41.8875C12.5 41.8875 12.526 41.4634 12.8759 41.1878C12.9318 41.2808 12.9688 41.3704 12.9578 41.4371C13.0211 41.3257 13.4639 40.6111 14.4651 40.4249C15.4663 40.2426 15.7082 39.5132 15.7082 39.5132L17.833 37.5817L20.2633 35.345L23.2183 34.3065L24.5993 33.9677C24.5993 33.9677 24.6253 34.0683 24.5733 34.2915C24.8299 34.2731 25.3994 34.1429 25.9911 33.9343C26.2293 33.8413 26.4528 33.8041 26.5718 33.927C26.7467 34.0906 26.7727 34.4777 26.7838 34.7083C27.0703 34.6451 27.4015 34.3698 27.667 34.3958C28.0914 34.4404 28.4672 34.9392 28.899 34.9392C29.4684 34.9392 29.7251 34.5894 30.1235 34.3139C30.3617 34.1502 30.7039 33.9459 30.8975 33.8077C31.359 33.4689 36.2418 31.9766 36.2418 31.9766L37.9538 32.0882L38.2293 33.9267L38.0821 38.7328C38.0639 38.7502 38.0458 38.7684 38.0274 38.7858L30.2435 42.8512L19.4537 44.5052C17.0368 44.1104 14.7044 43.3081 12.5559 42.1326L12.5007 41.8873L12.5 41.8875Z" fill="#D8C173"/>
<path fill-rule="evenodd" clip-rule="evenodd" d="M8.46094 39.234C8.61427 38.9134 8.75215 38.6452 8.77644 38.5493C8.79557 38.7426 8.83065 39.1668 8.90131 39.6177C8.75297 39.4916 8.60617 39.3637 8.46094 39.2338V39.234Z" fill="#F1D789"/>
<path fill-rule="evenodd" clip-rule="evenodd" d="M16.3416 43.7573L17.737 43.3692L17.856 43.4064C17.856 43.4064 17.9193 43.4437 17.9193 43.5701C18.0942 43.4697 18.2432 43.4881 18.3511 43.4214C18.4068 43.5404 18.4625 43.9349 18.7083 43.9832C18.9649 44.0392 19.2404 43.8716 19.5196 43.6596C19.7949 43.4401 20.1084 43.1645 20.3457 43.0529C20.4327 43.213 20.5098 43.3782 20.5765 43.5478C20.8891 43.2985 21.4325 42.2862 22.2065 42.3046C22.4303 41.776 22.804 41.3244 23.2816 41.0058C23.9999 40.5184 24.4501 40.4811 25.0122 40.5257C25.2354 40.2357 25.5105 39.9897 25.8235 39.8C25.9165 39.8373 26.1734 39.9936 26.4935 39.8447C26.8174 39.696 27.1819 39.119 27.662 39.0446C27.9208 39.009 28.1838 39.0643 28.4064 39.2009C28.4064 39.2009 29.8048 37.8126 30.7697 37.3511C30.7324 37.2395 30.6581 36.819 31.7893 35.8884C31.8526 35.9443 31.808 36.1006 31.8526 36.1092C31.871 36.1092 32.147 35.9902 32.4964 35.7221C32.9282 35.3985 33.4453 35.0597 33.7579 34.9667C34.3467 34.7918 34.9713 35.149 34.9713 35.149C35.0244 35.1117 35.0836 35.084 35.1462 35.067C35.2949 35.041 35.4029 35.0224 35.4848 34.9934C35.4774 35.187 35.5854 35.5182 35.4848 35.8047C35.6013 35.8703 35.7247 35.9227 35.8528 35.961C35.7897 36.0987 35.6519 36.4485 35.4212 36.6161C35.6146 36.709 35.6406 36.817 35.9161 36.9105C35.8045 37.0667 35.6217 37.3349 35.5402 37.4993C35.4583 37.6742 35.1641 38.3999 35.0339 38.6752C34.8962 38.9507 34.7103 39.4568 34.6207 39.5584C34.5312 39.6599 34.2076 40.0905 33.9583 40.3025C34.1791 40.2205 35.0824 39.9453 35.4657 39.841C35.3516 40.0083 34.7733 40.8662 34.2174 41.6913C31.5556 43.2867 28.5844 44.2965 25.5017 44.6534C22.4191 45.0102 19.2957 44.706 16.3398 43.761L16.3416 43.7573Z" fill="#E0CD81"/>
<path fill-rule="evenodd" clip-rule="evenodd" d="M11.9212 19.4495C11.9212 19.4495 11.5976 19.4495 11.5343 19.4942C11.471 19.5388 11.8581 19.6321 11.9771 19.6767C12.0961 19.7214 12.353 19.926 12.42 20.0899C12.4833 20.2461 14.746 21.1578 14.746 21.1578L16.3464 21.0759L16.8982 20.3136L15.8486 19.3943L16.5846 17.2246L15.6096 17.3809L13.2649 18.7793L12.0888 19.2297L11.9212 19.4495Z" fill="#DFC57C"/>
<path fill-rule="evenodd" clip-rule="evenodd" d="M15.4385 20.1678C15.4616 20.2053 15.4942 20.236 15.533 20.2569C15.5717 20.2778 15.6153 20.2881 15.6593 20.2868C15.9905 20.2868 16.2955 20.3688 16.422 20.5361C16.6343 20.8042 17.2223 21.6602 17.2223 21.6602L18.6291 22.1663L18.7198 20.5098L17.1828 19.4419L15.4336 20.0857V20.1676H15.4375L15.4385 20.1678Z" fill="#E5CC7C"/>
<path fill-rule="evenodd" clip-rule="evenodd" d="M15.1633 20.782C15.1633 20.782 15.4199 20.8007 15.7438 20.6814C16.0676 20.5622 16.5997 20.3056 16.8306 20.4062C17.1542 20.5438 17.0872 20.9756 17.4373 21.363C17.6493 21.6012 18.0364 21.5938 18.256 21.8507C18.4755 22.1076 19.2309 21.9883 19.2309 21.9883L19.5175 23.5339L18.3676 25.0079L17.9915 26.8388H16.4366L15.0161 26.2753L14.3164 24.5825L14.6663 22.8705L15.1633 20.782Z" fill="#D2C281"/>
<path fill-rule="evenodd" clip-rule="evenodd" d="M18.1695 20.8561C18.2081 20.868 18.2481 20.8743 18.2885 20.8747C18.2438 20.912 18.1506 20.9937 18.1879 21.2059C18.2252 21.4181 18.3442 21.686 18.2438 21.8497C18.3239 21.9372 18.3837 22.0415 18.4188 22.1548C18.4821 22.3374 18.5007 22.5047 18.9136 22.5309C18.854 22.5676 18.7991 22.6114 18.75 22.6612C18.75 22.6612 19.0365 22.9105 19.1818 23.1411C19.3304 23.1347 19.7249 23.012 19.7249 23.012L19.8069 23.068L19.9818 22.9944C19.9818 22.9944 19.8182 22.9311 19.9371 22.5329C20.0488 22.1831 20.1493 22.2017 20.1579 22.1757C20.1665 22.1497 20.2399 21.7812 20.2399 21.6323C20.2956 21.439 20.3402 20.8509 20.3402 20.8509L20.2212 19.5522L19.5515 19.1464L19.0068 18.6207L18.4931 19.5882L18.1548 19.9256L18.1288 20.7629L18.1695 20.8561Z" fill="#E2C270"/>
<path fill-rule="evenodd" clip-rule="evenodd" d="M19.7812 19.7695C19.7812 19.7695 19.9002 20.1081 19.9451 20.3686C19.961 20.318 19.9697 20.2654 19.9711 20.2123C19.9711 20.2123 20.0641 20.7261 20.0825 20.9383C20.1198 20.9307 20.1561 20.9196 20.1645 20.9567C20.1728 20.9937 20.2577 21.4071 20.2381 21.6377C20.393 21.382 20.6075 21.1676 20.8632 21.0126C21.0121 20.9194 21.187 20.819 21.3695 20.8114C21.6561 20.8041 21.8644 20.994 22.2069 20.994C23.0329 20.994 23.7812 20.3873 24.3319 20.2013C24.7375 20.0634 25.0873 19.9631 25.3329 19.7396C25.4521 19.6392 25.6643 19.416 25.8577 19.0845C26.1145 18.6429 26.3824 18.2585 26.6506 18.2102C26.5293 18.2325 26.4058 18.2412 26.2826 18.2362C26.2826 18.2362 26.3645 18.1542 26.5034 18.0426C26.6422 17.931 26.8086 17.7933 27.0466 17.7933C27.471 17.7933 27.6829 17.8564 27.9212 17.8564C28.1594 17.849 28.297 17.7933 28.297 17.7933C28.297 17.7933 28.5465 17.9683 29.1083 17.9683C29.6704 17.9756 30.0462 18.024 30.3404 18.0502C30.6346 18.0765 31.6205 17.9683 31.9034 17.9766C32.0878 17.9837 32.2689 18.028 32.4358 18.1069L31.5239 15.4573L28.2482 12.5942L26.298 13.975L23.2981 16.9747L20.3953 18.0502L19.7886 18.7313V19.7695H19.7812Z" fill="#CCB360"/>
<path fill-rule="evenodd" clip-rule="evenodd" d="M26.292 18.2512C26.292 18.2512 26.3739 18.1695 26.5113 18.0579C26.6487 17.9463 26.8168 17.8084 27.0547 17.8084C27.4789 17.8084 27.6912 17.8717 27.9294 17.8717C28.1676 17.8643 28.3052 17.8084 28.3052 17.8084C28.3052 17.8084 28.555 17.9831 29.1166 17.9831C29.6786 17.9904 30.0545 18.0387 30.3486 18.0647C30.6428 18.0908 31.6288 17.9831 31.9117 17.9911C32.0961 17.9981 32.2771 18.0424 32.4438 18.1214L32.0307 16.9266L31.5508 16.015L30.1811 14.515L28.5248 13.5401C28.5175 13.5327 27.9554 13.3838 27.9554 13.3838L26.4667 14.2844L25.1158 17.7792L25.0898 18.5152L25.9642 18.9283C26.1838 18.5603 26.4259 18.2659 26.6529 18.2286C26.448 18.251 26.2918 18.251 26.2918 18.251L26.292 18.2512Z" fill="#D5B457"/>
<path fill-rule="evenodd" clip-rule="evenodd" d="M26.2751 18.5007C26.1449 18.5081 26.0372 18.4821 26.0072 18.3891C25.8956 18.0766 25.8063 18.0319 25.7128 18.0319C25.6194 18.0319 25.4933 18.2328 25.4184 18.2512C25.3436 18.2696 25.2548 18.0206 25.2548 18.0206L25.1729 17.9833C25.1729 17.9833 24.6928 18.2959 24.3542 18.6644C24.0157 19.0329 23.461 19.6582 23.2117 19.7696C22.9625 19.881 22.1063 19.9185 21.8134 19.9818C21.5204 20.0451 21.1956 20.2573 21.151 20.3057C21.1063 20.354 21.2815 20.406 21.3075 20.4543C21.3335 20.499 21.0207 20.4803 20.9947 20.5279C20.9763 20.5652 21.0683 20.7772 21.1139 20.8851C21.1938 20.8454 21.2814 20.8238 21.3706 20.8218C21.6571 20.8145 21.8656 21.0044 22.2078 21.0044C23.0341 21.0044 23.7821 20.3977 24.3329 20.2115C24.7386 20.0738 25.0885 19.9732 25.334 19.75C25.453 19.6496 25.6652 19.4261 25.8588 19.0949C26.0001 18.868 26.138 18.6558 26.2759 18.4995L26.2751 18.5007Z" fill="#D2B257"/>
<path fill-rule="evenodd" clip-rule="evenodd" d="M14.4263 36.9194C14.4263 36.9194 14.3527 36.6438 13.6707 35.9331C13.4771 35.7322 13.3581 35.5651 13.2278 35.4456C12.904 35.1402 12.7141 35.0585 12.4835 34.8836C11.9773 34.5077 11.4266 34.5077 11.0024 34.0462C10.5782 33.5847 10.0839 32.703 9.74038 31.8019C9.40182 30.9012 9.30859 30.6147 9.30859 30.5887C9.30859 30.5627 9.40182 30.3878 9.52081 30.4138C9.6398 30.4398 9.6398 30.6704 9.66973 30.7263C9.72901 30.8176 9.79625 30.9035 9.87066 30.9829C10.0456 31.1841 10.2948 31.4246 10.4214 31.7832C10.3954 31.478 10.2912 31.1395 10.2912 31.1395C10.2912 31.1395 10.9462 31.5526 11.5043 31.9842C12.0664 32.416 12.297 32.5649 12.4611 32.8401C12.6253 33.1154 13.0119 33.8414 13.1972 34.0536C13.3824 34.2658 15.9204 35.0658 15.9204 35.0658L17.1277 35.966L17.727 37.2798L17.2579 38.0158L16.3573 38.2093L14.8946 37.5543L14.4263 36.9191V36.9194Z" fill="#D2B159"/>
<path fill-rule="evenodd" clip-rule="evenodd" d="M11.176 32.3935C11.176 32.3935 11.4812 32.881 12.2256 33.3424C12.8956 33.7482 13.9561 34.1167 14.9016 34.3363C15.4448 34.4665 15.9882 34.5669 16.4757 34.5745C17.7894 34.5929 18.6937 34.2173 19.8142 34.0944C20.4209 34.0311 21.1652 33.9827 21.9392 33.8C22.9328 33.5618 23.5209 33.2936 24.3211 32.9168C24.9016 32.6489 25.434 32.4479 25.8655 32.1911C26.4722 31.8339 26.915 31.4357 27.4288 31.3167C27.3655 31.4916 27.2985 31.8042 26.7924 32.128C27.0603 32.1204 27.4288 32.102 27.4288 32.102C27.4288 32.102 27.0715 32.314 26.4425 32.7904C26.0554 33.0848 25.5419 33.5831 25.0171 33.9143C24.6783 34.1265 24.3099 34.2823 24.068 34.4094C23.4792 34.7332 23.2417 34.8969 22.8548 35.2926C22.9924 35.2852 23.0037 35.2926 23.0037 35.2926C23.0037 35.2926 22.516 35.3559 22.1664 35.5418C22.0928 35.5418 21.9652 35.5158 21.742 35.5791C21.567 35.6348 21.3362 35.7617 21.0982 35.8284C20.7594 35.929 20.648 35.8843 20.648 35.8843L20.7037 35.996C20.7037 35.996 20.2621 35.9883 20.1149 36.0033C20.1409 36.0107 20.1336 36.022 20.1336 36.022C20.1077 36.0263 20.0828 36.0351 20.06 36.048C19.9891 36.0939 19.9112 36.1278 19.8294 36.1483C19.7847 36.1557 19.7474 36.1557 19.6915 36.167C19.7101 36.2116 19.8554 36.4614 19.9223 36.6086C19.8667 36.6458 19.0291 37.2786 19.0291 37.2786C19.0551 37.3194 19.0763 37.3631 19.0924 37.4088C19.1184 37.4905 19.1297 37.6098 19.1557 37.6654C19.2187 37.7771 19.256 37.7957 19.256 37.7957C19.256 37.7957 19.1557 37.8144 18.9805 37.859C18.8318 37.8963 18.6493 37.9594 18.3917 37.9966C18.3127 38.0069 18.2332 38.0132 18.1535 38.0153C18.1908 38.0972 18.3544 38.4098 18.0529 38.7707C17.7514 39.1316 17.6584 39.1841 17.5654 39.4147C17.5186 39.3793 17.4688 39.3481 17.4165 39.3214C17.3162 39.2768 17.1783 39.2101 17.13 39.1205C17.1018 39.2398 17.0645 39.3568 17.0184 39.4704C16.9254 39.7196 16.7877 39.9654 16.7617 40.1514C16.6611 40.0398 16.4752 39.8202 16.2183 39.8649C15.9615 39.9095 15.7569 40.2594 15.7122 40.3599C15.7122 40.2966 15.6676 40.2483 15.6565 40.3227C15.6489 40.4046 15.5076 41.2603 14.7186 41.9526C14.7113 41.7777 14.7113 41.3906 14.6926 41.2642C14.619 41.3378 14.529 41.4465 13.9929 41.6774C13.4682 41.908 13.5513 42.1389 13.5513 42.1389C13.5513 42.1389 13.5067 41.7709 13.7895 41.3832C14.0761 40.9963 14.251 40.8138 14.251 40.7841C14.2464 40.7539 14.2335 40.7255 14.2137 40.7022C14.1764 40.6649 14.1021 40.6202 14.1021 40.5906C14.1467 40.5722 14.5896 40.3599 14.5636 39.9206C14.5376 39.5263 14.3702 39.3214 14.251 39.1765C14.2326 39.1578 14.4262 39.0202 14.3999 38.9755C14.3813 38.9495 14.1433 38.7744 14.1134 38.6811C14.1204 38.6255 14.1329 38.5707 14.1507 38.5175C14.1767 38.4355 14.1953 38.3796 14.188 38.3239C14.1693 38.2309 14.0687 37.9741 14.039 37.9481C14.0651 37.9554 14.251 37.9481 14.251 37.9481C14.251 37.9481 14.1023 37.7099 14.0761 37.5982C14.0498 37.4866 13.9942 37.1924 13.9645 37.1368C14.0278 37.1441 14.184 37.1552 14.184 37.1368C14.1916 37.0808 14.0464 36.9878 14.1104 36.916C14.1551 36.9233 14.2407 36.9606 14.3224 37.0649C14.2778 36.9456 14.2034 36.715 14.0469 36.622C14.1205 36.596 14.3707 36.5288 14.5903 36.6591C14.8099 36.7894 14.8847 36.9716 14.8847 36.9716C14.8847 36.9716 15.015 37.0722 15.2161 37.2212C15.4468 37.4034 15.7407 37.6627 16.2097 37.8463C16.3103 37.9022 16.5669 37.9022 16.7531 37.8649C16.8342 37.8456 16.912 37.8142 16.9838 37.7719C17.0097 37.7566 17.0372 37.7441 17.0657 37.7346C17.0257 37.6543 16.9797 37.5772 16.9281 37.5038C16.9914 37.5038 17.0657 37.5114 17.0657 37.5114C17.0657 37.5114 17.1104 37.4108 16.9094 37.217C16.9541 37.1723 17.01 37.1434 17.01 37.0681C16.9467 37.0607 16.8351 36.9677 16.8091 36.9304C16.8461 36.9044 16.9021 36.8188 16.9654 36.7928C16.9094 36.7481 16.7718 36.5619 16.7085 36.5435C16.769 36.5211 16.8275 36.4937 16.8834 36.4616C16.8834 36.4616 16.5709 36.3797 16.4703 36.3127C16.3697 36.2391 16.221 36.1118 16.1317 36.0745C16.0385 36.0372 15.8749 36.0188 15.8079 35.9442C15.8709 35.9628 15.9715 35.9442 16.0461 35.9442C16.1018 35.9442 16.128 35.9516 16.1464 35.9516C16.1391 35.9255 16.1391 35.8696 16.2843 35.8512C16.3542 35.8407 16.422 35.8193 16.4852 35.7879C16.4852 35.7879 16.3474 35.7806 16.1908 35.6316C16.0343 35.4827 15.9043 35.3637 15.815 35.3451C15.722 35.3264 15.5471 35.4084 15.4392 35.4008C15.2902 35.3824 15.2269 35.3078 15.2269 35.3078C15.2269 35.3078 14.7321 35.3524 13.6342 34.6827C12.6851 34.102 12.2719 33.5885 12.2719 33.5885C12.1831 33.5563 12.0972 33.5164 12.0153 33.4693C11.6581 33.2833 11.163 32.8962 11.178 32.3898L11.176 32.3935Z" fill="#C2A44D"/>
<path fill-rule="evenodd" clip-rule="evenodd" d="M24.8688 10.056C24.9549 10.084 25.0314 10.1356 25.0896 10.205C25.2645 10.4059 25.3761 10.7854 24.978 11.1912C25.1342 11.2469 25.1988 11.2648 25.3352 11.2469C25.1975 11.4108 24.885 11.7606 24.8663 12.0658C24.8477 12.3151 25.004 12.3897 25.004 12.3897C25.004 12.3897 24.7657 12.6649 24.7547 13.1257C24.8672 12.9988 24.9903 12.8818 25.1227 12.7758C25.3982 12.5562 25.7778 12.307 26.0346 12.1507C26.0311 12.2162 26.04 12.2818 26.0606 12.344C26.0606 12.344 26.5405 11.9495 26.9438 12.1247C27.1261 12.2066 27.0442 12.4633 27.0442 12.4633C27.0442 12.4633 27.2937 12.3703 27.4686 12.5452C27.6435 12.7201 27.8908 13.1713 28.0177 13.3462C28.0734 13.4282 28.2186 13.5844 28.3673 13.8263C28.5704 14.165 28.74 14.5227 28.8737 14.8943C28.881 14.7007 28.9293 14.3994 29.4804 14.5891C30.0312 14.7826 30.6563 15.1884 31.181 15.9875C31.7058 16.7865 31.8358 17.6886 32.1001 18.0321C32.368 18.3633 32.6435 18.9141 32.6621 19.1449C32.6808 19.3758 32.5802 20.1199 33.131 22.1333C33.2873 21.5082 33.5255 20.1199 33.5255 20.1199L33.6558 18.8954L33.8047 15.1067L29.8484 11.82L26.7557 9.57568L24.7422 9.76925L24.8685 10.0558L24.8688 10.056Z" fill="#CAA13E"/>
<path fill-rule="evenodd" clip-rule="evenodd" d="M32.2184 15.6942C32.2184 15.6942 32.1625 15.3262 31.2322 14.7006C30.3016 14.0828 29.5759 14.0828 28.9062 13.558C28.3924 13.1449 27.8566 12.1957 27.5078 11.8832C27.169 11.5743 27.1133 10.681 27.1133 10.681L28.2558 9.72422L29.955 7.26819L31.3914 5.68652L32.0798 6.64332L33.0366 7.7672L33.5687 10.0225L33.7623 13.3238L32.2167 15.6944L32.2184 15.6942Z" fill="#B59544"/>
<path fill-rule="evenodd" clip-rule="evenodd" d="M33.3698 19.6514C33.3979 19.1507 33.3361 18.6491 33.1872 18.1703C32.9419 17.4073 32.4058 16.0526 32.1568 15.5452C32.0562 14.9832 32.1308 14.9385 32.2388 14.8752C32.3467 14.8119 32.7525 14.5808 32.9748 13.77C33.197 12.9592 33.8867 12.9327 33.8867 12.9327L34.3109 12.6201L34.9549 14.2315L35.5167 15.6868L35.6916 16.7996L35.8219 17.7486L35.5167 19.7547L34.0096 21.1167L33.3695 19.6514H33.3698Z" fill="#C89D3A"/>
<path fill-rule="evenodd" clip-rule="evenodd" d="M12.3359 42.0107V41.9695C12.3673 41.9499 12.3949 41.925 12.4176 41.8959C12.4436 41.8586 12.4625 41.8139 12.4809 41.8029C12.5182 41.7843 12.6931 41.7293 12.7861 41.747C12.8791 41.7646 13.1249 41.866 13.2552 41.8586C13.5231 41.8512 13.8357 41.6464 14.3307 41.7396C15.0751 41.8772 15.25 42.3834 15.6818 42.6699C15.9762 42.8711 16.2809 42.7816 16.3255 42.7816H16.4259C16.4445 42.7816 16.5822 42.6253 16.6567 42.6329C16.8057 42.6402 16.8204 42.7632 16.9134 42.7705C17.1329 42.7965 17.5574 42.6589 17.7696 42.7148C17.8325 42.7345 17.8897 42.7692 17.9364 42.8158C17.983 42.8624 18.0177 42.9196 18.0375 42.9825C18.0821 43.1201 18.0448 43.295 17.9369 43.3956C17.7063 43.6076 17.4867 43.8088 17.4421 43.9844C17.4989 44.0278 17.5534 44.0739 17.6055 44.1228C15.764 43.6536 13.9923 42.9443 12.3359 42.0129V42.0107Z" fill="#CEB052"/>
<path fill-rule="evenodd" clip-rule="evenodd" d="M32.1562 34.5745C32.1562 34.5745 32.7367 33.8004 32.9379 33.417C33.1388 33.0217 32.3015 28.0169 32.3015 28.0169L33.9837 22.5053L33.9388 20.7114C33.9388 20.7114 34.0208 19.0552 34.2143 18.3368C34.4452 18.75 35.1635 19.2487 35.3198 19.5129C35.3934 19.0066 35.6434 17.9386 35.6063 16.7998C35.744 17.0118 36.0752 19.1445 36.0752 19.1445L36.4064 20.5809L36.8382 22.1069L37.3183 23.7184L37.6048 24.8313L37.7684 25.0992L37.9063 25.568L38.0366 26.0744L38.4124 27.2616L38.6332 28.2365L38.8082 30.0044C38.8462 30.1397 38.8736 30.2779 38.8901 30.4175C38.8975 30.6111 38.8641 30.7227 38.8641 30.7563C38.8641 30.7899 38.9274 31.1805 38.9014 31.4747C38.8641 31.7691 38.8641 31.9994 38.6332 32.2107C38.4024 32.4219 38.2574 33.6844 38.2574 33.6844L37.8443 33.4091C37.8443 33.4091 37.9262 33.033 37.7326 32.6908C37.5391 32.3485 37.1632 32.2776 36.951 32.3336C36.739 32.3782 36.3149 32.445 36.177 32.5642C36.0467 32.6832 35.7268 33.0517 35.4326 33.2192C35.0647 33.44 34.4651 33.4575 34.1451 33.5318C33.8213 33.6054 33.4641 33.8262 33.088 34.0826C32.7931 34.2735 32.4818 34.4377 32.1577 34.5732L32.1562 34.5745Z" fill="#CCA847"/>
<path fill-rule="evenodd" clip-rule="evenodd" d="M32.1562 42.7066C32.1562 42.7066 32.1808 42.7226 32.2281 42.7486C34.8722 41.5098 37.2413 39.7538 39.1956 37.5843C39.1743 36.8311 39.1465 36.0591 39.1161 35.773C39.0531 35.1663 39.0977 34.5486 39.0791 34.1913C39.0604 33.8341 38.8595 32.3788 38.7665 32.003C38.6659 31.6271 38.4721 31.4409 38.4427 31.4409C38.4167 31.4485 38.2601 32.1482 38.2601 32.3241C38.2601 32.5 38.2228 32.9235 38.2228 33.0314C38.1968 33.0238 38.1858 32.9578 38.1858 32.9308C38.1485 33.0238 38.1039 33.1877 38.0852 33.2063C38.0666 33.225 38.1112 33.0501 38.0852 33.0128C38.0592 32.9755 38.0116 32.9941 38.0219 32.9011C38.0263 32.846 38.035 32.7913 38.0479 32.7375C38.0479 32.7375 37.9363 32.9011 37.8546 33.318C37.7727 33.7311 37.7727 33.7424 37.743 33.7794C37.717 33.8243 37.5681 33.973 37.5604 34.0289C37.5531 34.1293 37.6983 34.2299 37.7094 34.2856C37.7167 34.3788 37.5791 34.8103 37.5344 35.0216C37.4898 35.2328 37.5084 35.6467 37.4608 35.8589C37.4236 36.0524 37.3872 36.1641 37.2599 36.2458C37.3529 36.2644 37.4422 36.2904 37.4422 36.2904C37.4422 36.2904 37.5725 36.8412 37.2413 37.3103C37.1223 37.4739 37.0926 37.5485 36.966 37.6974C36.7165 37.9727 36.5229 38.2862 36.5043 38.4901C36.4914 38.4299 36.4827 38.3689 36.4783 38.3075C36.4783 38.3075 36.0914 38.758 35.9275 39.0148C35.7155 39.346 35.4214 39.3274 35.3387 39.4093C35.256 39.4913 35.2381 39.64 35.2651 39.7592C35.1915 39.7776 35.0531 39.8038 34.9599 40.0904C34.9153 40.2391 34.8036 40.3848 34.6287 40.4849C34.4538 40.585 34.2416 40.6152 34.1336 40.6412C34.2266 40.6672 34.2639 40.6672 34.3086 40.6969C34.2529 40.7898 33.996 40.9351 33.7095 41.1213C33.4229 41.2962 33.285 41.5528 33.2144 41.7204C33.1408 41.8767 33.0321 41.9772 32.8572 41.9959C32.9308 42.0405 33.0397 42.1446 33.0954 42.1782C33.0134 42.1968 32.8746 42.1968 32.6266 42.409C32.366 42.6249 32.2767 42.6882 32.1575 42.7069L32.1562 42.7066Z" fill="#C39D3C"/>
<path fill-rule="evenodd" clip-rule="evenodd" d="M26.9778 44.431C27.1203 44.3311 27.2746 44.2493 27.4373 44.1874C28.0178 43.9568 28.6318 43.9121 28.8737 43.8378C29.1046 43.7642 29.2869 43.6626 29.5734 43.6069C29.5658 43.6722 29.5594 43.7335 29.5526 43.7914C28.7078 44.057 27.8475 44.2706 26.9766 44.431H26.9778Z" fill="#D2BA6B"/>
<path fill-rule="evenodd" clip-rule="evenodd" d="M37.6809 29.1631C37.6809 29.1631 37.5619 29.8068 37.3497 30.2126C37.1375 30.6184 36.9081 31.1802 36.9081 31.1802C36.9095 31.0536 36.9245 30.9275 36.9527 30.8041C36.6848 30.9604 36.0335 31.3365 35.8487 31.5038C35.6738 31.6601 35.3797 31.9356 35.3053 32.0658C35.4803 31.5524 35.6625 31.0909 35.6925 30.8787C35.4246 31.0722 34.1739 32.1031 33.5227 32.7842L31.4943 34.4255C31.2603 34.5517 31.0192 34.6646 30.7723 34.7635C30.4227 34.9122 30.0096 35.0388 29.7044 35.158C29.7863 34.9384 29.9163 34.7446 30.0989 34.5587C30.2924 34.3764 30.8729 33.7474 30.9622 33.4547C31.0441 33.1495 31.0628 32.9672 30.9548 32.7103C30.8543 32.7363 30.6236 32.7476 30.4674 32.7923C30.3111 32.8369 30.1435 33.0042 30.1435 33.0042C30.1435 33.0042 30.2625 32.3232 30.5194 31.6794C30.3258 31.6868 29.9946 31.7425 29.9946 31.7425C29.9946 31.7425 30.4561 30.9685 31.2458 30.429C31.0039 30.4804 30.7673 30.5539 30.5388 30.6483C30.0773 30.8419 29.5712 31.1284 29.1953 31.2847C29.4073 30.9903 30.896 28.8657 31.7819 26.8856C32.6651 24.9095 32.995 24.4033 33.1886 23.3428C33.2889 22.818 33.2622 22.0425 33.2889 21.348C33.3149 20.6593 33.4006 20.0416 33.3449 19.6284C33.5755 19.915 34.4391 20.7226 34.4687 22.5278C34.4948 24.3327 33.6427 26.7706 32.7382 28.0841C32.959 28.1474 33.5311 28.222 34.1189 27.2009C34.7067 26.1798 34.6996 25.8947 34.9118 25.4703C34.9378 25.6825 34.9302 25.7568 34.9302 25.7568C34.9302 25.7568 35.7864 24.7186 36.192 23.4122C36.2739 23.9743 36.5158 24.4693 36.136 25.5002C35.7975 26.4305 35.3546 26.6577 35.3546 26.6577C35.3546 26.6577 35.5742 26.6204 35.8978 26.4268C35.9537 26.5645 35.9427 26.7212 36.0357 26.7767C36.1287 26.8321 36.2553 26.9256 36.2739 27.0149C36.3743 26.866 36.5305 26.6761 36.5791 26.5348C36.5418 26.8292 36.5158 28.1165 36.6527 28.7715C36.9395 28.7455 37.2334 28.7268 37.4343 28.2094C37.2967 28.7158 37.2967 29.0208 37.3897 29.4525C37.5423 29.3485 37.6799 29.1623 37.6799 29.1623L37.6809 29.1631Z" fill="#C0993A"/>
<path fill-rule="evenodd" clip-rule="evenodd" d="M28.0126 8.64963C28.0126 8.64963 27.7261 8.76862 27.2386 8.76862C26.8144 8.76862 26.9334 8.60498 26.271 8.60498C25.2514 8.60498 21.6896 9.19378 21.0642 9.18544C20.6584 9.17808 22.4337 9.36036 22.4337 9.36036L26.9707 9.42366L27.8824 9.35006L28.2212 8.66067L28.0126 8.64963Z" fill="#A88F33"/>
<path fill-rule="evenodd" clip-rule="evenodd" d="M16.2509 17.5181C16.2509 17.5181 15.6702 17.961 15.4246 18.2998C15.179 18.6386 15.0487 18.8616 14.7695 19.1371C14.8351 19.1396 14.9005 19.1308 14.9631 19.1111C14.9631 19.1111 14.9631 19.1847 14.9184 19.2041C14.957 19.1998 14.9961 19.2041 15.0328 19.2169C15.0694 19.2296 15.1028 19.2504 15.1304 19.2777C15.0485 19.3223 14.8252 19.5458 15.0001 19.81C15.1304 20.011 15.4059 20.0294 15.4059 20.0294C15.4059 20.0294 15.3426 20.2119 15.6069 20.1933C16.1763 20.1673 16.8127 19.9177 17.1066 19.981C17.401 20.0546 17.5683 20.0816 17.7766 20.4428C17.9974 20.8 18.1897 20.8559 18.1897 20.8559C18.1897 20.8559 18.32 20.5245 18.2903 20.0296C18.3971 19.7629 18.4563 19.4795 18.4652 19.1923L18.2717 17.7669L17.427 16.6987L16.3328 17.3054L16.2509 17.5174V17.5181Z" fill="#E3C571"/>
<path fill-rule="evenodd" clip-rule="evenodd" d="M17.2852 17.3058C17.2852 17.3058 17.3671 17.4993 17.7096 17.5177C17.6723 17.5997 17.6723 17.611 17.6836 17.674C17.6909 17.7373 17.702 17.8303 17.702 17.8303C17.7397 17.812 17.7738 17.7871 17.8026 17.7567C17.8212 17.8386 17.7839 17.9687 17.8026 18.0619C17.8141 18.1186 17.8328 18.1736 17.8583 18.2255C17.8637 18.2128 17.8699 18.2004 17.8769 18.1885C17.8843 18.1698 17.9505 18.3894 18.1338 18.5565C18.1336 18.5308 18.1399 18.5055 18.1522 18.4829C18.155 18.5295 18.1704 18.5746 18.1968 18.6132C18.1831 18.6066 18.1706 18.5978 18.1598 18.5871C18.1598 18.5871 18.1782 19.1759 18.2788 19.4804C18.2956 19.4607 18.3105 19.4395 18.3234 19.4171C18.3234 19.3987 18.316 19.581 18.2974 19.7115C18.2714 19.8418 18.29 20.0241 18.29 20.0241C18.3571 19.9712 18.4309 19.9274 18.5094 19.8938C18.621 19.8489 18.8038 19.7113 18.9152 19.4061C18.9798 19.2332 19.0296 19.0552 19.0641 18.8739C19.1001 18.9432 19.1249 19.0177 19.1377 19.0947C19.1453 19.1877 19.3202 19.1394 19.3202 19.1394L19.3575 18.7336L19.5783 17.8143L19.7792 17.2449L20.7468 15.7378L22.4951 14.3915L24.021 14.7413L25.3085 12.9921L23.0905 11.6597L20.9914 11.8792L19.0864 14.5178L17.5607 16.911L17.2852 17.3055V17.3058Z" fill="#D8B65B"/>
<path fill-rule="evenodd" clip-rule="evenodd" d="M28.2821 13.4876C28.2821 13.4876 28.1518 13.5136 27.776 13.7084C27.4001 13.9032 27.1396 13.965 26.9944 14.2515C26.8491 14.5381 26.8381 14.7653 26.8381 14.7653C26.8381 14.7653 27.0949 14.6536 27.2439 14.6163C27.4001 14.5793 27.5751 14.5903 27.5564 14.6536C27.5385 14.697 27.5137 14.7372 27.4828 14.7726C27.4828 14.7726 27.7772 14.7653 27.7694 14.9105C27.7615 15.0557 27.7137 15.2157 27.658 15.2864C27.6021 15.36 27.3714 15.4689 27.3454 15.5545C27.2821 15.7294 27.3714 15.7368 27.3378 15.8781C27.3118 16.016 27.1892 16.2839 26.7871 16.7527C26.3739 17.2218 26.1982 17.553 26.1982 17.553C26.1982 17.553 25.9973 17.1772 25.8931 16.8533C25.8195 16.8904 25.4242 17.1099 25.4242 17.1099L24.5086 13.9206L24.527 13.7084C24.527 13.7084 24.609 13.608 24.6276 13.4218C24.49 13.3772 24.4713 13.3399 24.2888 13.1652C24.1063 12.9905 23.9576 12.778 23.6527 12.6328C23.608 12.5509 23.5521 12.4395 23.3288 12.3946C23.1056 12.3497 22.9716 12.3129 22.9716 12.3129C22.9716 12.3129 23.0906 12.268 23.1465 12.175C23.0086 12.1937 22.8973 12.2383 22.5957 12.231C22.2906 12.2233 22.2569 12.2123 22.0896 12.2383C21.9223 12.2643 21.7216 12.3389 21.6468 12.082C21.5649 12.0187 21.3899 12.0747 21.241 12.294C21.0921 12.5133 21.0401 12.6885 20.7535 12.7741C20.7334 12.9004 20.6892 13.0217 20.6233 13.1313C20.5413 13.2692 20.411 13.4068 20.2361 13.6115C19.9606 13.9353 20.0053 14.4674 19.5661 14.8732C19.1233 15.2788 19.6397 13.7491 19.6397 13.7491L20.3468 12.0563L22.3602 10.0875L25.4865 9.87549L25.7917 11.4947L27.3177 12.0195L28.2816 13.4895L28.2821 13.4876Z" fill="#D3AE4D"/>
<path fill-rule="evenodd" clip-rule="evenodd" d="M28.7765 13.8447L27.4628 11.9505L26.5436 11.2432C26.5436 11.2432 25.8885 10.0376 25.8439 10.0003C25.8066 9.97433 25.1889 9.90735 24.7944 9.88135L24.868 10.0636C24.9541 10.0916 25.0306 10.1432 25.0888 10.2125C25.2637 10.4135 25.3753 10.793 24.9772 11.1988C25.1334 11.2545 25.1979 11.2724 25.3344 11.2545C25.1967 11.4183 24.8842 11.7682 24.8655 12.0734C24.8469 12.3226 25.0032 12.397 25.0032 12.397C25.0032 12.397 24.7649 12.6725 24.7539 13.133C24.8664 13.0061 24.9895 12.8891 25.1219 12.7831C25.3974 12.5623 25.7769 12.314 26.0338 12.1578C26.0303 12.2233 26.0391 12.289 26.0598 12.3513C26.0598 12.3513 26.5396 11.9568 26.943 12.1318C27.1252 12.2137 27.0433 12.4706 27.0433 12.4706C27.0433 12.4706 27.2928 12.3776 27.4677 12.5525C27.6426 12.7274 27.8919 13.1776 28.0185 13.3528C28.0742 13.4347 28.2194 13.591 28.3681 13.8326C28.5712 14.1714 28.7408 14.5291 28.8744 14.9008C28.8818 14.7519 28.9117 14.5436 29.1688 14.5436L28.778 13.8439L28.7765 13.8447Z" fill="#CAA13E"/>
<path fill-rule="evenodd" clip-rule="evenodd" d="M9.08039 19.2262C9.08039 19.2262 8.98741 18.9953 9.08039 18.5451C9.17337 18.0949 9.3186 17.8827 9.36694 17.2203C9.41527 16.5579 9.84705 15.7316 9.84705 15.7316L11.0416 15.1885L11.8865 15.4191L12.1358 16.5506L11.0676 17.1394C11.0676 17.1394 11.0119 17.3886 10.7104 17.5896C10.4089 17.7905 9.99204 17.9468 9.8917 18.1516C9.83172 18.277 9.78794 18.4096 9.76143 18.5461C9.76143 18.5461 9.45624 18.4828 9.27395 18.6837C9.08039 18.8886 9.08775 19.0709 9.08039 19.2272V19.2262Z" fill="#F4EFC8"/>
<path fill-rule="evenodd" clip-rule="evenodd" d="M11.4927 18.9247C11.4927 18.9247 11.3921 18.988 11.3178 19.1455C11.2442 19.0265 11.0683 18.3192 11.0609 17.6828C11.0536 17.0464 11.0155 16.8887 11.1627 16.6694C11.3099 16.45 11.8872 16.2189 11.8053 15.8239C11.7233 15.4481 11.3808 15.2918 10.9603 15.3998C10.6659 15.4734 10.4469 16.0995 10.1417 16.412C9.91081 16.6502 9.63555 16.6129 9.56121 16.7432C9.46062 16.9181 9.55361 17.093 9.52392 17.2047C9.51632 17.242 9.42333 17.4429 9.25577 17.6848C8.91721 18.1723 8.34411 18.8609 8.26953 19.4786C8.29554 19.1288 8.27714 19.1214 8.37012 18.7343L8.31418 18.6413L8.68218 17.4355L8.9204 16.4419L9.45277 14.7781L10.3904 13.0775L11.3023 12.0576L12.2513 12.1209L12.3629 13.5463L12.9063 16.2224L14.0488 17.6291L12.2177 18.8614L11.492 18.9247H11.4927Z" fill="#EBCC73"/>
<path fill-rule="evenodd" clip-rule="evenodd" d="M12.0607 19.4306C12.0607 19.4306 11.9045 19.4679 11.8485 19.4382C11.7926 19.4085 11.7372 19.3749 11.7556 19.3376C11.774 19.3003 11.8745 19.2373 11.8745 19.2073C11.8766 19.1803 11.8681 19.1535 11.8507 19.1327C11.8333 19.1118 11.8085 19.0986 11.7816 19.0957C11.6959 19.0847 11.6699 19.1404 11.6699 19.1404C11.6699 19.1404 11.588 19.0773 11.5213 19.0668C11.5607 19.0619 11.6005 19.0594 11.6402 19.0592C11.5374 19.0126 11.4283 18.9812 11.3164 18.9662C11.4094 18.9105 11.5919 18.7466 11.7109 18.7466C11.8299 18.7466 11.9045 18.7282 11.8858 18.6649C11.8672 18.6016 11.7742 18.5086 11.6739 18.4713C11.7109 18.4267 11.7372 18.3597 11.6479 18.1769C11.5546 17.9946 11.5919 17.8717 11.6218 17.8273C11.6479 17.7714 11.7408 17.671 11.7855 17.6077C11.8301 17.5444 11.8674 17.4588 11.9418 17.4142C11.9791 17.3881 12.098 17.3406 12.2173 17.2952C12.3475 17.2505 12.4555 17.1946 12.5298 17.2505C12.6118 17.3062 12.5745 17.3808 12.5745 17.3808C12.5745 17.3808 12.8313 17.2876 13.062 17.4068C13.2928 17.5182 13.8549 17.5891 13.8549 17.5891L14.0563 17.9949L12.7239 19.1374L12.1731 19.4129L12.0615 19.4313L12.0607 19.4306Z" fill="#E5C66B"/>
<path fill-rule="evenodd" clip-rule="evenodd" d="M13.9127 17.5628C13.9127 17.5628 13.4996 17.8383 13.4066 17.9386C13.4623 17.9462 13.5553 17.9835 13.518 18.0392C13.4734 18.0949 13.2055 18.2884 13.0565 18.471C12.9003 18.6533 12.7513 18.8841 12.6993 18.9957C12.6436 19.0961 12.2192 19.3902 12.0742 19.4273C12.3794 19.4273 12.9935 19.0514 13.2241 19.0514C13.2167 19.1631 13.2874 19.2897 13.4177 19.3007C13.5479 19.3117 13.9238 19.3826 14.4299 19.0701C14.936 18.7649 14.7687 18.5377 14.9807 18.389C15.3865 18.1209 15.5501 17.8827 15.7734 17.734C15.9966 17.5853 16.1122 17.5515 16.1122 17.5515C16.1122 17.5515 16.1195 17.4398 16.1858 17.4511C16.2039 17.4532 16.2211 17.4602 16.2356 17.4714C16.25 17.4825 16.2611 17.4974 16.2677 17.5144C16.2677 17.5144 16.6548 17.2389 17.1509 17.1646C17.1393 17.1594 17.1301 17.1501 17.1249 17.1386C17.1249 17.1386 17.1619 17.1199 17.1695 17.1013C17.1695 17.1013 17.1956 17.064 17.2142 17.0826C17.2328 17.1013 17.2588 17.2389 17.2961 17.2948C17.3781 17.2576 17.5344 16.9077 17.5344 16.9077L17.9105 15.8322V14.8496L17.6161 14.9055L15.4081 15.8432L14.068 17.2316L13.9118 17.5628H13.9127Z" fill="#E6BD62"/>
<path fill-rule="evenodd" clip-rule="evenodd" d="M20.2689 12.7432C20.3884 12.7142 20.5029 12.6677 20.6087 12.6053C20.5641 12.7245 20.5641 12.8548 20.3705 13.1377C20.1769 13.4206 20.1696 13.4615 20.0133 13.7554C19.857 14.0606 19.8384 14.4998 19.6894 14.6931C19.7562 14.6607 19.8278 14.6394 19.9014 14.6301C19.9014 14.6301 19.7527 14.7603 19.6894 14.898C19.6261 15.0356 19.5145 15.3222 19.2393 15.4973C18.964 15.6725 18.6139 15.7839 18.2381 16.197C17.862 16.6026 17.4751 17.1163 17.2812 17.301C17.3818 17.1261 17.5195 16.7763 17.5568 16.5456C17.594 16.315 17.5492 16.0393 17.6125 15.7343C17.6757 15.4294 17.6757 15.2095 17.9805 14.6772C18.2852 14.1448 18.8067 12.2952 18.8067 12.2952L19.9306 11.938L20.2694 12.742L20.2689 12.7432Z" fill="#B6933F"/>
<path fill-rule="evenodd" clip-rule="evenodd" d="M19.4573 12.062C19.4573 12.062 19.1188 12.5495 19.0258 12.9812C18.9328 13.413 19.0182 13.3757 18.9625 13.588C18.9292 13.7173 18.9292 13.8531 18.9625 13.9824C19.0797 13.7936 19.2403 13.6353 19.4308 13.5207C19.751 13.3274 20.0115 13.1895 20.1668 13.0259C20.3231 12.851 20.4534 12.5644 20.7919 12.3448C20.6543 12.3262 20.4607 12.2629 20.4239 12.2712C20.5618 12.115 20.9747 11.8767 21.3915 11.5902C21.8046 11.2958 21.7786 11.1771 22.4486 10.8831C22.2291 10.9204 22.1248 10.8645 21.9423 10.8831C22.0159 10.7269 22.2735 10.6523 22.5311 10.3957C22.7887 10.1391 22.3674 9.75928 22.3674 9.75928L20.4048 10.9464L19.4558 12.063L19.4573 12.062Z" fill="#C49937"/>
<path fill-rule="evenodd" clip-rule="evenodd" d="M14.1328 11.1763L14.1775 10.8191L14.7395 9.91845L15.3276 8.33678V6.17441L15.2829 4.92395L15.3759 4.10503L15.4466 3.84473L15.5212 3.74414L16.001 3.9934L16.6637 4.89402L16.727 6.6322L16.083 9.37503L14.2444 11.3811L14.1328 11.1763Z" fill="#DFC068"/>
<path fill-rule="evenodd" clip-rule="evenodd" d="M15.5921 3.6435C15.5921 3.6435 15.2977 3.65111 15.2349 4.87557C15.1721 6.10002 15.1417 6.74378 15.097 7.35049C15.0524 7.9572 14.9484 8.32544 14.8961 8.68289C14.8438 9.04034 14.8142 9.52758 14.6468 9.82541C14.5732 9.96304 14.416 10.3948 14.0475 10.7187C13.6344 11.0759 13.0171 11.3254 12.9236 11.344C12.7598 11.3811 11.9298 11.463 11.5912 11.6492C11.4723 11.7125 11.2674 11.7869 11.0405 11.9991C10.59 12.4046 9.99095 13.1303 9.55916 14.0049C8.89677 15.3113 8.23438 18.9994 8.23438 18.9994L8.38329 18.7501C8.38329 18.7501 8.40194 18.4189 8.73313 17.8382C9.05697 17.2578 8.96399 16.6064 9.41417 15.4936C9.58909 15.0694 9.80867 14.5186 10.0766 14.0496C10.501 13.2866 11.0145 12.6315 11.5319 12.2743C12.3766 11.6939 13.3071 11.5673 13.3071 11.5673L14.3083 10.9049C14.3083 10.9049 14.4832 10.5663 14.7141 10.1792C15.0377 9.63601 15.4501 9.0293 15.5401 8.14733C15.678 6.84093 15.3465 5.98496 15.3652 5.21094C15.3838 4.43691 15.3912 3.86749 15.5477 3.72961C15.7042 3.59174 15.5924 3.64399 15.5924 3.64399L15.5921 3.6435Z" fill="#A88F33"/>
<path fill-rule="evenodd" clip-rule="evenodd" d="M15.5937 9.48662C15.5937 9.48662 16.0354 8.39979 16.2375 7.43588C16.2748 7.24231 16.3491 7.04899 16.3678 6.89271C16.4608 5.98081 16.4868 5.60495 16.3678 5.10619C16.2748 4.73819 15.9176 4.4065 15.7314 4.14939C15.5491 3.88124 15.4635 3.78139 15.5008 3.72497C15.5381 3.66854 15.6831 3.57629 15.8244 3.58733C15.9746 3.59171 16.1223 3.62658 16.2587 3.68985C16.395 3.75311 16.517 3.84344 16.6173 3.95533C16.9039 4.28653 17.1308 5.41065 17.1308 5.41065L17.3695 6.89394L17.9762 8.76215L15.5942 9.48809L15.5937 9.48662Z" fill="#C99E3D"/>
<path fill-rule="evenodd" clip-rule="evenodd" d="M19.7441 8.35513C19.7441 8.35513 19.6622 8.39217 19.5135 8.35513C19.5198 8.41588 19.5093 8.47721 19.483 8.53236C19.4567 8.5875 19.4158 8.63433 19.3646 8.66768C19.2083 8.60439 17.7454 8.73098 17.7454 8.73098C17.7454 8.73098 17.0643 8.61175 16.8521 7.71113C16.7035 7.11178 16.9638 6.28574 16.8781 5.74233C16.7479 4.94205 16.5656 4.78553 16.5469 4.53651C16.5283 4.2875 16.5096 4.22396 16.5096 4.06768C16.4277 4.04904 16.3794 4.02303 16.2977 4.02303C16.279 3.94943 16.3161 3.88515 16.2344 3.75488C16.279 3.77353 16.5842 3.81082 16.9414 4.14938C17.2358 4.42489 17.2358 4.52523 17.2802 4.58117C17.3359 4.63686 17.7864 5.02277 17.9799 5.40745C18.1735 5.79213 18.5493 7.0188 18.635 7.21973C18.661 7.30167 18.7169 7.38361 18.8558 7.56957C19.0717 7.83772 19.3879 8.28104 19.7451 8.35464L19.7441 8.35513Z" fill="#B58634"/>
<path fill-rule="evenodd" clip-rule="evenodd" d="M17.332 4.59998C17.5575 4.96417 17.76 5.34207 17.9385 5.73145C18.1581 6.22629 18.2883 6.63207 18.5638 6.96327C18.4149 6.53173 18.1507 5.68312 17.9944 5.38161C17.8195 5.06267 17.4623 4.71921 17.332 4.60022V4.59998Z" fill="#A88F33"/>
<path fill-rule="evenodd" clip-rule="evenodd" d="M14.8024 10.7185C14.8024 10.7185 14.4265 10.8115 13.7269 11.18C13.496 11.299 13.2767 11.3993 13.0645 11.4925C12.5132 11.7418 11.922 11.9722 11.4529 12.0992C11.4902 12.1439 11.5086 12.1623 11.5086 12.1623C11.5086 12.1623 11.5086 12.3448 11.6092 12.4488C11.5535 12.5048 10.8089 13.0109 11.0288 14.7042C11.1774 14.6485 11.3523 14.5739 11.3783 14.5739C11.4232 14.5815 11.4343 14.7042 11.49 14.7042C11.5457 14.7042 11.7282 14.6306 11.9218 14.3804C11.9144 14.4809 11.8028 15.4932 12.4019 16.1742C12.5135 16.044 12.7963 15.6122 12.7963 15.6122L12.8037 15.4745C12.8037 15.4745 12.8297 14.9944 12.9862 14.5553C13.1427 14.1161 13.4477 13.7923 13.4477 13.7923L15.0401 11.5183L14.8019 10.7183L14.8024 10.7185Z" fill="#E6C367"/>
<path fill-rule="evenodd" clip-rule="evenodd" d="M13.3129 14.0577C13.24 14.1092 13.1596 14.1494 13.0747 14.1767C13.0486 14.0837 13.0114 13.7636 13.2309 13.451C13.4878 13.0749 14.0496 12.5874 14.2059 12.1998C14.3065 11.9503 14.2618 11.3252 15.1551 10.5249C16.0483 9.7246 16.3979 9.44934 16.3979 9.44934L17.842 8.72363L19.6172 9.42333L18.7352 12.8801L18.0505 14.4993L15.3273 13.9858L13.3126 14.0577H13.3129Z" fill="#DCBA5A"/>
<path fill-rule="evenodd" clip-rule="evenodd" d="M14.3516 13.1193L14.6904 12.6951V12.3936C14.6904 12.3936 15.0662 12.293 15.4718 11.8798C15.8773 11.4667 16.4394 10.674 16.9345 10.7223C17.4295 10.7783 17.4779 11.7979 17.4965 12.0847C17.5152 12.3715 17.5785 13.0224 17.6788 13.3724C17.7904 13.7223 16.473 15.0471 16.473 15.0471L15.5782 15.7282L14.3516 13.1193Z" fill="#E9CE77"/>
<path fill-rule="evenodd" clip-rule="evenodd" d="M15.3984 16.651C15.3984 16.651 15.6739 16.2192 15.472 16.1262C15.591 15.8583 15.8106 15.5754 15.8106 15.5754C15.8106 15.5754 15.9669 15.1886 16.473 14.7121C16.9791 14.2357 17.2919 13.9192 17.3738 13.5993C17.4243 13.3908 17.4518 13.1774 17.4557 12.9629C17.5105 13.0076 17.569 13.0474 17.6307 13.0819C17.7126 13.1192 18.0995 13.4391 18.0438 14.0831C17.9881 14.7271 17.7494 14.995 17.7494 14.995C17.7494 14.995 17.5188 15.2256 17.3552 15.3448C17.18 15.4638 17.117 15.6015 16.8228 15.6127C16.853 15.5887 16.887 15.5698 16.9234 15.5568C16.9234 15.5568 16.6182 15.5198 16.4543 15.6684C16.2904 15.8171 15.9421 16.2751 15.7672 16.413C15.5922 16.5246 15.3992 16.6512 15.3992 16.6512L15.3984 16.651Z" fill="#CDAE50"/>
<path fill-rule="evenodd" clip-rule="evenodd" d="M27.7738 9.41201C27.3341 9.25175 26.872 9.16136 26.4044 9.1441C25.6227 9.11809 24.4802 9.16274 23.36 9.1701C22.1542 9.17746 21.0601 8.75696 19.5417 8.68262C19.2925 8.5337 18.6585 7.88234 16.6797 9.26309C16.7987 9.25573 18.1163 8.95789 18.5739 9.53124C19.0354 10.1007 18.9051 11.0683 18.842 11.2989C18.7228 11.8126 18.3357 12.5606 18.1796 13.0854C18.0236 13.6102 18.0604 13.8859 17.9488 14.2539C17.8372 14.6219 17.5916 14.8047 17.7366 15.2289C17.9301 15.1099 18.031 15.1099 18.3543 14.3842C18.6777 13.6585 18.6112 13.1411 19.1472 12.527C19.672 11.9093 20.5456 11.0643 20.8778 10.8521C21.21 10.6399 23.8475 9.27045 26.6092 10.5769C27.2753 10.5062 27.774 9.41176 27.774 9.41176L27.7738 9.41201Z" fill="#D2A83E"/>
<path fill-rule="evenodd" clip-rule="evenodd" d="M17.7928 8.90589C17.7901 8.87792 17.7839 8.8504 17.7744 8.82395C17.7486 8.76952 17.7147 8.71931 17.6738 8.67503C17.6738 8.67503 17.0188 8.55604 16.6876 8.59309C16.1069 8.65638 15.5821 9.37473 15.3365 9.74322C15.091 10.1117 14.7858 10.6809 14.4546 10.9751C14.4582 10.9464 14.4516 10.9174 14.4359 10.8931C14.4359 10.8931 14.4546 10.9191 14.4175 10.9564C14.3805 10.9937 14.3802 11.0121 14.3989 11.03L14.4548 11.0857C14.4732 11.0857 14.987 10.8548 15.6866 10.2025C16.431 9.52144 17.0004 9.17208 17.2982 9.05236C17.457 8.98486 17.6231 8.93572 17.7931 8.90589H17.7928Z" fill="#C29637"/>
<path fill-rule="evenodd" clip-rule="evenodd" d="M30.4998 6.10742C30.4998 6.10742 30.3806 6.25609 30.2316 6.41998C29.9004 6.76983 29.4686 7.16408 29.1002 7.56986C28.7506 7.957 28.3561 8.25852 27.913 8.76464C27.4699 9.27077 26.9562 9.83258 26.8262 9.99647C26.7072 10.1604 26.6142 10.4283 26.6142 10.5659C26.5509 10.5212 26.4766 10.4729 26.4766 10.4729C26.5079 10.5313 26.5453 10.5863 26.5882 10.6368C26.6812 10.7671 26.8262 10.9312 26.9007 11.0313C26.9922 11.1587 27.0579 11.3028 27.0941 11.4555C27.1387 11.4628 27.4253 11.5188 27.7827 10.9307C28.1402 10.3426 28.6088 9.69888 28.6088 9.69888L29.3531 8.5934L29.8222 7.65573L30.411 6.60619L30.5005 6.10742H30.4998Z" fill="#AC8132"/>
<path fill-rule="evenodd" clip-rule="evenodd" d="M31.261 5.35547C31.261 5.35547 30.8106 5.72348 30.6357 5.94428C30.4608 6.16509 30.0469 6.74458 30.0469 6.74458L30.1958 6.72593L30.9514 6.05616L31.2458 5.53138L31.2608 5.35645L31.261 5.35547Z" fill="#A88F33"/>
<path fill-rule="evenodd" clip-rule="evenodd" d="M31.1231 34.9316C31.1231 34.9316 31.1157 34.6264 31.2869 34.4442C31.4619 34.2616 31.9047 33.9937 32.3365 32.9889C32.7683 31.984 32.8164 31.757 32.8164 31.757C32.8164 31.757 32.0423 32.4194 31.5651 32.5757C31.6768 32.3448 31.7401 32.1812 31.796 32.062C31.7327 32.0063 31.4648 31.943 31.4388 31.9133C31.5875 31.7644 31.6694 31.3996 31.9709 31.1577C32.3581 30.8633 33.0651 30.3574 33.6147 29.9065C34.1642 29.4556 35.2447 28.4068 35.3825 28.1016C35.4645 28.2205 35.4829 28.2949 35.4829 28.2949C35.4829 28.2949 34.9397 29.0022 34.6568 29.4524C34.4073 29.8395 34.426 30.0591 34.426 30.0591L34.9397 29.8383C34.9397 29.8383 35.0884 30.3891 34.4149 31.2266C34.7093 31.115 34.8281 31.182 34.9954 31.0887C34.7199 31.2639 34.3404 31.5021 33.9832 32.1569C33.6333 32.812 33.1569 33.575 32.3532 34.0511C31.5715 34.5536 31.1211 34.9294 31.1211 34.9294L31.1231 34.9316Z" fill="#A67A2E"/>
<path fill-rule="evenodd" clip-rule="evenodd" d="M29.1088 9.79936C29.1088 9.79936 28.8037 10.4355 28.759 10.9306C28.7517 11.0498 28.7217 11.1428 28.7217 11.2804C28.7144 11.7232 28.7477 12.2183 28.6481 12.4489C28.6108 12.356 28.5922 12.2927 28.5549 12.2556C28.4992 12.4119 28.3986 12.8994 28.3167 13.0816C28.2796 12.9627 28.1977 12.5495 28.2053 12.062C28.2129 11.5746 28.2237 11.4813 28.2237 11.381C28.2053 11.5297 28.1047 11.7308 28.0674 11.8498C28.0118 11.7495 27.9485 11.6192 27.8739 11.5113C27.8292 11.5849 27.7735 11.6936 27.7252 11.7495C27.7176 11.7048 27.6992 11.5856 27.6879 11.4183C27.6806 11.2247 27.6693 10.9755 27.6806 10.9232C27.699 10.8229 27.8555 10.4284 28.1867 10.0673C28.5812 9.63548 28.9869 8.80577 29.1059 8.54891C29.2249 8.29205 29.731 7.22412 29.731 7.22412H30.1181L29.5561 8.50426C29.5561 8.50426 29.2175 9.20394 29.0426 9.46105C28.8677 9.71815 28.4992 10.4549 28.3353 10.7414C28.4543 10.5852 28.5549 10.5032 28.6741 10.3543C28.7894 10.25 29.1093 9.79985 29.1093 9.79985L29.1088 9.79936Z" fill="#8C6228"/>
<path fill-rule="evenodd" clip-rule="evenodd" d="M31.2707 5.30713C31.2075 5.50176 31.1076 5.68247 30.9763 5.8395C30.7455 6.11501 30.2504 6.48326 30.0088 6.77717C29.788 7.06372 29.3464 7.84535 29.5471 8.77197C29.6207 8.57104 29.7593 8.17287 30.1278 7.72243C30.4962 7.272 30.8907 6.75484 31.0845 6.35299C31.2778 5.9472 31.3038 5.62729 31.3038 5.62729L31.3774 5.53431L31.3328 5.32209L31.2695 5.30713H31.2707Z" fill="#CBA94C"/>
<path fill-rule="evenodd" clip-rule="evenodd" d="M38.8061 29.9931C38.8061 29.9931 38.6572 29.5875 38.6126 29.219C38.5679 28.8506 38.6862 28.7774 38.5493 28.3557C38.4673 28.0989 38.3187 28.1349 38.2814 28.0989C38.2441 28.0628 38.2181 27.6747 38.2254 27.4625C38.2328 27.2502 38.2181 26.975 38.1808 26.8557C38.1251 26.8111 38.0878 26.7738 38.0059 26.4985C37.9129 26.223 37.8682 26.0854 37.8236 26.0037C37.7789 25.922 37.6484 25.8474 37.6484 25.7655C37.6484 25.6016 37.7973 25.5162 37.7973 25.4711C37.79 25.3781 37.6783 25.4527 37.6484 25.4264C37.6114 25.3818 37.7416 25.1139 37.6933 25.0766C37.6747 25.0582 37.5444 25.2145 37.5108 25.1698C37.4735 25.1249 37.4288 24.6821 37.3619 24.3882C37.2988 24.1016 37.2316 23.8933 37.2242 23.8077C37.2169 23.7258 36.7105 22.2818 36.5878 21.9319C36.489 21.6363 36.4058 21.3357 36.3386 21.0313C36.3013 20.8564 36.2753 20.4989 36.2566 20.5362C36.238 20.5735 36.2493 20.7558 36.2193 20.7484C36.1933 20.7408 36.1004 20.1047 36.0707 20.0041C36.0447 19.9035 35.8881 19.5625 35.8499 19.3157C35.8126 19.0662 35.7309 18.4148 35.6749 17.972C35.619 17.5292 35.593 17.3469 35.593 17.236C35.6021 16.9648 35.5872 16.6933 35.5483 16.4247C35.4747 15.9556 35.3275 15.3862 35.1985 15.0552C34.9492 14.4299 34.2866 12.8296 34.1681 12.4314C34.1681 12.3308 34.2984 12.3867 34.2984 12.3867C34.2984 12.3867 34.622 13.198 34.8602 13.8232C35.091 14.4485 35.3106 14.9993 35.3666 15.0552C35.4112 15.1109 35.7611 15.725 35.9173 16.7299C36.0736 17.7347 36.1293 18.6614 36.2225 19.2791C36.2672 19.5735 36.3045 19.8858 36.3974 20.1984C36.4978 20.5372 36.6541 20.887 36.8589 21.4228C37.0339 21.8733 37.1641 22.2491 37.2348 22.573C37.3167 22.9861 37.3167 23.2987 37.3651 23.5035C37.4099 23.6784 37.4767 24.028 37.6332 24.5339C37.7897 25.0398 38.0201 25.6914 38.1764 26.0969C38.4818 26.9082 38.618 27.5856 38.6641 27.9467C38.7048 28.3189 38.8427 29.6067 38.8054 29.9936L38.8061 29.9931Z" fill="#A88F33"/>
<path fill-rule="evenodd" clip-rule="evenodd" d="M31.2865 5.26239L31.2678 5.30704C31.2678 5.30704 31.3235 5.32568 31.3125 5.40026C31.3133 5.5023 31.307 5.60428 31.2938 5.70546C31.2754 5.83573 31.2381 5.93608 31.2308 6.01802C31.2308 6.19294 31.2568 6.39387 31.01 6.89264C30.9364 7.03027 30.891 7.14926 30.8537 7.2312C30.7607 7.43213 30.7421 7.46206 30.6602 7.55504C30.7904 7.48144 31.2595 7.18704 31.4974 7.2312C31.3338 7.32418 31.0843 7.50671 30.928 7.74493C30.9653 7.75229 31.1216 7.78222 31.3696 7.74493C31.7828 7.68163 32.2442 7.53271 32.6497 7.5624C33.0928 7.58841 32.9179 7.03027 32.9179 7.03027L32.4066 5.90639L31.4391 5.22559L31.2865 5.26263V5.26239Z" fill="#BE9C44"/>
<path fill-rule="evenodd" clip-rule="evenodd" d="M33.8125 13.6808C33.8125 13.6808 33.3808 13.249 33.2058 11.7672C33.0309 10.2785 33.0682 8.0872 33.0682 8.0872L32.7184 7.23123C32.7184 7.23123 32.6448 6.66181 32.4615 6.44984C32.2782 6.23787 31.9183 5.88042 31.7544 5.7055C31.5906 5.53058 31.4046 5.29236 31.293 5.25507C31.3487 5.16209 31.5982 4.63732 32.5545 4.62996C33.5108 4.6226 33.8057 5.15473 33.9055 5.34829C34.0054 5.54186 34.4563 6.3787 34.6236 7.97336C34.7799 9.56607 34.7875 9.6853 34.7615 10.2361C34.7428 10.5413 34.6423 11.2483 34.4671 12.0037C34.3071 12.644 34.1322 13.3587 33.8121 13.6823L33.8125 13.6808Z" fill="#A17C34"/>
<path fill-rule="evenodd" clip-rule="evenodd" d="M32.4557 14.9505C32.5996 14.9609 32.7434 14.9285 32.8689 14.8573C33.0065 14.85 33.5053 14.9133 33.8885 14.4258C33.9145 14.5372 33.9818 14.8389 33.8066 15.1068C33.8998 15.0136 34.0375 14.9766 34.0561 14.9505C34.0635 15.0882 34.1937 15.5124 33.6429 16.5432C33.7916 16.3796 33.9666 16.387 34.1228 16.3683C34.1304 16.5619 34.2345 17.213 33.9592 17.5631C33.7769 17.8013 33.479 17.7267 33.479 17.7267C33.4834 17.6747 33.4834 17.6224 33.479 17.5704C33.4717 17.4699 33.4344 17.3695 33.4606 17.3025C33.3167 17.2368 33.1856 17.146 33.0735 17.0344C32.7496 16.7292 32.3291 16.2084 32.2994 15.8212C32.2621 15.3894 32.6493 15.2965 32.6493 15.2965C32.6168 15.2674 32.5892 15.2335 32.5673 15.1959C32.5487 15.1328 32.53 15.0322 32.4557 14.9505Z" fill="#8C6228"/>
<path fill-rule="evenodd" clip-rule="evenodd" d="M29.5877 10.268C29.5877 10.268 29.5691 10.242 29.4688 10.3609C29.4874 10.242 29.506 10.1301 29.5134 10.0221C29.5609 9.9222 29.6223 9.82952 29.6959 9.74687C29.64 9.85825 29.6027 9.95884 29.6027 9.95884C29.6027 9.95884 29.7406 9.70198 29.9415 9.5457C30.0791 9.43407 30.254 9.38206 30.3284 9.27779C30.4103 9.16617 30.3917 9.14752 30.4103 9.12888C30.4103 9.12888 30.5928 9.00989 30.872 8.6598C30.9091 8.61515 30.965 8.56682 31.0023 8.52217C31.0653 8.49616 31.2143 8.42919 31.3892 8.33964C31.5717 8.2393 31.7763 8.10167 31.9029 8.04524C32.1521 7.93361 32.4166 7.9449 32.5393 7.76973C32.6322 7.74372 32.7326 7.46454 32.7142 7.22656C32.8518 7.28225 33.5588 7.7214 33.801 8.68163C33.9759 9.36268 33.6631 10.4122 33.5328 10.9186C33.4026 11.425 33.3842 11.8006 33.2016 12.0312C32.9708 12.3366 32.2267 12.7672 32.0442 12.9804C31.8879 13.1553 31.4191 13.5981 31.4375 13.918C31.4561 14.1562 31.75 14.286 31.8136 14.3312C31.8771 14.3763 31.8766 14.4318 31.9959 14.4048C32.1151 14.3778 32.1595 14.3228 32.2081 14.3228C32.2638 14.3302 32.2638 14.3415 32.2898 14.3415C32.3086 14.3409 32.3274 14.3384 32.3457 14.3339C32.3457 14.3339 32.3271 14.6727 31.5344 14.7755C31.4785 14.7831 31.4228 14.8015 31.3519 14.8128C31.4451 14.7681 31.5008 14.7681 31.6014 14.6305C31.4898 14.6118 31.1696 14.5932 31.0877 14.5672C31.1137 14.5225 31.1993 14.4033 31.2699 14.3476C31.3332 14.2919 31.2626 14.274 31.2069 14.303C31.111 14.3682 31.019 14.439 30.9314 14.5149C30.8384 14.5969 30.7565 14.7085 30.6076 14.8093C30.5629 14.6604 30.5703 14.3775 30.7454 14.1729C30.7005 14.1803 30.6149 14.3106 30.5332 14.2846C30.5185 14.1488 30.5272 14.0115 30.5592 13.8788C30.6039 13.7112 30.8458 13.4173 30.8458 13.4173L32.0143 11.3293L32.2635 9.74761L29.5877 10.2675V10.268Z" fill="#92723A"/>
<path fill-rule="evenodd" clip-rule="evenodd" d="M29.5228 10.3575C29.5228 10.3575 29.4595 10.4021 29.5861 10.4877C29.5674 10.5137 29.5228 10.6067 29.4669 10.67C29.4038 10.7436 29.3366 10.7892 29.3106 10.8525C29.2549 10.9828 29.2102 11.0721 29.2102 11.1281C29.2102 11.184 29.1916 11.5412 29.0353 11.7718C28.9793 11.8538 28.916 11.9914 28.8714 12.0844C28.7784 12.248 28.6965 12.3788 28.6778 12.4524C28.6408 12.5826 28.6148 12.9398 28.6148 12.9398C28.6148 12.9398 28.6967 12.8393 28.7264 12.8022C28.6815 12.8952 28.6332 12.9955 28.5625 13.0701C28.6072 13.0328 28.7374 12.9398 28.957 12.7463C29.2622 12.4897 29.7387 12.0579 30.3194 11.7159C30.1443 11.7792 29.9956 11.7792 29.8766 11.7978C29.9696 11.7048 30.8069 10.7223 31.2461 10.6293C31.2728 10.5955 31.286 10.553 31.2834 10.5101L30.9073 10.473L30.1443 10.6367L30.0329 10.0479L29.5228 10.3567V10.3575Z" fill="#B18E3E"/>
<path fill-rule="evenodd" clip-rule="evenodd" d="M30.7385 13.7068C30.7385 13.7068 30.6379 13.8072 30.5449 14.0567C30.4733 13.9819 30.412 13.898 30.3624 13.8072C30.2248 13.5766 30.0128 13.2824 29.5177 13.45C29.5104 13.2937 29.4991 13.2118 29.5177 13.1001C29.5997 13.0817 29.8489 12.8808 30.0982 12.5867C30.2734 12.3857 30.437 12.1549 30.5486 11.861C30.6222 11.805 30.7495 11.712 30.9166 11.6041C31.1548 11.4405 31.4414 11.217 31.486 10.9677C31.3744 11.0123 31.1362 11.124 30.7787 11.1056C30.9166 11.0423 31.1286 10.9753 31.1026 10.6998C31.1585 10.6625 31.2032 10.6365 31.2032 10.6365C31.1612 10.6225 31.1171 10.6162 31.0729 10.6179C31.0653 10.5918 31.0542 10.5548 30.991 10.5732C30.9277 10.5916 30.9174 10.5918 30.909 10.6179C30.883 10.6255 30.7974 10.6179 30.7341 10.6627C30.6708 10.7076 30.4959 10.8561 30.4289 10.8821C30.4549 10.8374 30.4919 10.7707 30.4919 10.7707C30.4919 10.7707 30.3097 10.7891 30.1794 10.8443C29.9412 10.9262 29.6659 11.0752 29.3867 11.2201C29.4127 11.1755 29.424 11.1465 29.4424 11.1382C29.4608 11.1299 29.5057 11.1198 29.5057 11.1122C29.5057 11.1046 29.4873 11.0386 29.4983 11.0119C29.5818 10.835 29.6803 10.6657 29.7927 10.5057C29.923 10.3306 29.949 10.0813 29.949 10.0813L30.5184 9.79476L32.1187 9.42676L33.1572 9.49005L33.027 10.2084L32.4136 11.4625L31.8889 12.6051L31.2895 13.305L30.7387 13.7068H30.7385Z" fill="#543E26"/>
<path fill-rule="evenodd" clip-rule="evenodd" d="M33.3313 10.5981C33.3313 10.5981 32.7059 11.3721 32.531 11.4913C32.6426 11.2531 33.3313 9.83509 33.5806 9.44059C33.5249 9.39594 33.4503 9.39594 33.6252 8.70459C33.4765 9.05419 33.4243 9.23672 33.3016 9.3297C33.1789 9.42268 33.1637 9.39299 33.0808 9.39299C33.0965 9.36467 33.1029 9.33217 33.0992 9.30001C33.0992 9.30001 32.5744 9.23672 32.216 9.23672C31.8575 9.23672 31.148 9.43029 30.7533 9.58656C30.4407 9.71683 30.2658 9.71683 30.1541 9.79853C30.0425 9.89151 29.9792 9.9921 29.9233 10.0181C29.8786 10.0441 29.6666 10.1111 29.6181 10.1817C29.5734 10.2553 29.4991 10.338 29.4991 10.3567C29.4991 10.3753 29.4804 10.4016 29.5364 10.3827C29.5548 10.3753 29.6927 10.3007 29.8489 10.2077C30.0609 10.0888 30.3178 9.95113 30.504 9.86919C31.0361 9.65697 31.2037 9.69426 31.4417 9.64961C31.6909 9.60496 32.0484 9.5007 32.2864 9.5007C32.5246 9.49334 32.9751 9.5007 33.0793 9.51934C33.0347 9.55663 32.9974 9.60128 33.016 9.75756C33.016 9.80221 32.9787 9.85054 32.9424 9.95849C32.831 10.2637 32.6188 10.7698 32.5008 11.0267C32.3372 11.3763 32.1512 11.6704 32.0592 11.8527C31.9672 12.035 31.7648 12.5151 31.5644 12.772C31.3639 13.0288 31.2591 13.1851 31.1963 13.241C31.1335 13.297 30.6826 13.6279 30.7162 13.7472C30.7982 13.7212 31.3156 13.5264 31.6912 13.1034C32.0668 12.6805 32.1416 12.4224 32.4356 12.1915C32.7295 11.9607 32.9603 11.5738 33.098 11.2538C33.2133 10.956 33.1873 10.863 33.3323 10.5988L33.3313 10.5981Z" fill="#806031"/>
<path fill-rule="evenodd" clip-rule="evenodd" d="M19.8542 16.3753C19.8542 16.3753 19.7722 16.7139 19.586 16.8814C19.4037 17.0453 19.0799 17.1866 19.0428 17.4622C18.9982 17.7374 19.3667 17.8753 19.3667 17.8753C19.3667 17.8753 19.1655 18.2065 19.1655 18.4558C19.1655 18.7126 19.1581 18.7609 19.1841 19.0065C19.1546 19.0255 19.1295 19.0506 19.1105 19.0801C19.1105 19.0801 19.1289 19.3183 19.3115 19.467C19.494 19.6157 19.65 19.7052 19.743 19.6679C19.7572 19.6983 19.7697 19.7294 19.7803 19.7612C19.7803 19.7612 19.9182 19.4113 20.0112 19.1061C20.1042 18.7936 20.1861 18.838 20.2232 18.4175C20.2602 17.997 20.6648 17.275 20.6648 17.275L20.9408 16.658L20.4906 16.3081L19.8542 16.3751V16.3753Z" fill="#B6903C"/>
<path fill-rule="evenodd" clip-rule="evenodd" d="M20.693 16.9819C20.6001 17.0772 20.5145 17.1792 20.4366 17.2871C20.3176 17.451 20.2246 17.5997 20.0497 17.6632C19.8748 17.7268 19.7631 17.7263 19.7742 17.9014C19.7852 18.0766 19.9491 18.1507 20.0421 18.24C20.1427 18.333 20.2246 18.4893 20.18 18.6644C20.2357 18.6384 20.3363 18.6085 20.4292 18.4076C20.5222 18.2066 21.1726 16.9822 21.1726 16.9822H20.693V16.9819Z" fill="#685026"/>
<path fill-rule="evenodd" clip-rule="evenodd" d="M23.2581 14.1569C23.2581 14.1569 23.3138 14.0082 23.2581 13.9003C23.2022 13.7887 22.8636 13.7514 22.6961 13.6248C22.5211 13.4945 22.3089 13.404 22.134 13.4611C22.16 13.3978 22.2643 13.26 22.1786 13.2303C22.0967 13.2043 21.7918 13.3419 21.7098 13.4052C21.6279 13.4685 21.4417 13.5428 21.4046 13.5877C21.3676 13.6326 21.304 13.718 21.2668 13.6807C21.2295 13.6547 21.2111 13.5877 21.1478 13.6248C21.0845 13.6618 20.7798 13.9113 20.7236 14.0566C20.6674 14.2018 20.5411 14.5256 20.1615 14.8939C19.782 15.2621 19.6181 15.5006 19.7297 15.6382C19.8414 15.7758 19.8936 15.6755 19.9123 15.7945C19.9266 15.9113 19.9203 16.0297 19.8936 16.1443C19.849 16.3379 19.7746 16.5202 19.875 16.5575C20.1318 16.6394 20.3813 16.4839 20.437 16.5315C20.5487 16.6318 20.3737 16.9929 20.638 17.0636C20.9061 17.1372 21.1703 17.0003 21.1703 17.0003L22.1453 16.4755L23.0832 15.9807L23.5631 15.0315L23.3057 14.2388L23.2566 14.1569H23.2581Z" fill="#D4B968"/>
<path fill-rule="evenodd" clip-rule="evenodd" d="M22.3364 16.4237C22.3364 16.4237 22.1725 16.1745 22.3737 15.9547C22.5748 15.7348 22.8611 15.6421 22.9727 15.5045C22.9515 15.4783 22.923 15.4589 22.8908 15.4488C22.9649 15.3162 23.0779 15.2096 23.2146 15.1433C23.1589 15.0877 23.0844 15.043 23.0027 15.043C22.8201 15.043 22.7083 15.1546 22.541 15.1546C22.3773 15.1546 22.3587 15.0727 22.3587 15.0727C22.3587 15.0727 22.6342 15.0467 22.6079 14.9238C22.5819 14.7935 22.5343 14.7935 22.5343 14.7935C22.5343 14.7935 23.0665 14.5727 23.1594 14.4549C23.2524 14.3372 23.2414 14.1981 23.26 14.1424C23.3231 14.1424 23.6916 13.9488 23.8405 14.0308C23.9894 14.1127 23.8851 14.336 23.8851 14.336C23.8851 14.336 24.3358 13.9972 24.5654 13.665C24.7663 13.6836 24.8598 13.5273 25.007 13.5273C25.1895 13.5273 25.4761 13.7766 25.5318 14.3087C25.569 14.6139 25.6247 14.7888 25.569 15.3286C25.543 15.6338 25.5504 16.2854 25.6426 16.6087C25.7057 16.8656 25.8546 16.8396 25.8546 16.8396C25.8318 16.9178 25.7865 16.9877 25.7243 17.0405C25.6238 17.1335 25.6127 17.3793 25.6238 17.4723C25.6386 17.5403 25.6573 17.6073 25.6797 17.6732C25.6797 17.6732 25.5607 17.8108 25.5308 17.9041C25.5048 17.997 25.3821 18.0603 25.2926 18.0603C25.203 18.0603 25.2479 18.0527 25.1289 18.0603C25.0099 18.0679 24.9727 18.0863 24.8981 18.0603C24.8235 18.0343 24.7678 18.0044 24.7977 17.7659C24.8237 17.5277 23.8785 16.9733 23.8785 16.9733L22.3329 16.4225L22.3364 16.4237Z" fill="#CCA849"/>
<path fill-rule="evenodd" clip-rule="evenodd" d="M20.5637 18.7756C20.5637 18.7756 20.9023 19.2261 22.2943 19.2261C22.9567 19.2261 23.1876 19.1628 23.3247 19.1255C23.4736 19.0882 24.0318 18.8689 24.5938 18.2062C25.1 17.6071 24.9883 17.3615 24.9883 17.3615L24.6939 17.3169L23.7371 17.4472L20.906 18.653L20.5625 18.7756H20.5637Z" fill="#585136"/>
<path fill-rule="evenodd" clip-rule="evenodd" d="M21.6003 18.8874C21.6003 18.8874 20.3945 19.1556 20.3945 18.3926C20.3945 17.6483 21.1389 16.8667 21.3251 16.7291C21.5186 16.5912 21.9801 16.4347 21.9801 16.4347H23.093L23.3049 16.9967L23.2119 18.2099L21.6003 18.8872V18.8874Z" fill="#252211"/>
<path fill-rule="evenodd" clip-rule="evenodd" d="M22.7122 16.6622C22.7122 16.6622 22.4816 16.45 21.9568 16.7358C21.432 17.0216 21.0076 17.619 20.9816 18.1615C20.9556 18.6414 21.3761 18.9988 22.0312 19.0175C22.5186 19.0359 22.8128 18.9802 22.9617 18.9439C22.9244 18.8992 22.7308 18.6573 22.7308 18.6573L22.7124 16.6625L22.7122 16.6622Z" fill="#C3B378"/>
<path fill-rule="evenodd" clip-rule="evenodd" d="M22.4847 16.7807C22.4847 16.7807 22.429 16.736 22.2639 16.8253C22.1263 16.8989 21.9254 17.0935 21.7691 17.2311C21.6685 17.313 21.6052 17.3501 21.5483 17.4134C21.3174 17.6889 21.1239 18.1393 21.2357 18.3625C21.3476 18.5858 21.7159 18.8426 22.6537 18.6677L22.482 16.7809L22.4847 16.7807Z" fill="#E6D89C"/>
<path fill-rule="evenodd" clip-rule="evenodd" d="M22.1797 17.2424C22.1797 17.2424 22.0308 17.4732 22.0308 17.8417C22.0308 18.2176 22.243 18.8167 23.0246 18.8613C23.6237 18.8986 24.0256 17.998 24.461 17.6481C24.7922 17.3802 24.9931 17.3726 24.9931 17.3726C24.9931 17.3726 24.6546 17.0046 23.7503 16.5279C22.8571 16.0478 21.8559 15.9845 21.3125 16.7215C21.5694 16.7029 22.3993 16.4906 22.3993 16.4906L22.8051 16.6209L22.1797 17.2426V17.2424Z" fill="#252211"/>
<path fill-rule="evenodd" clip-rule="evenodd" d="M23.3511 17.7297C23.3251 17.674 23.3065 17.5995 23.4144 17.5811C23.5223 17.5627 23.5706 17.5734 23.6079 17.6547C23.6452 17.7359 23.6815 17.8036 23.6263 17.8372C23.5706 17.8669 23.4254 17.8372 23.3508 17.7292L23.3511 17.7297ZM23.1762 17.205C23.1762 17.205 23.1389 17.231 23.1576 17.179C23.1649 17.1159 23.2135 17.004 23.3325 17.0303C23.4514 17.0565 23.4257 17.1866 23.406 17.2239C23.3864 17.2611 23.2871 17.3242 23.2125 17.2975C23.2031 17.295 23.1943 17.2904 23.187 17.284C23.1796 17.2776 23.1739 17.2695 23.1703 17.2604C23.1667 17.2514 23.1652 17.2416 23.1661 17.2319C23.1669 17.2221 23.1701 17.2128 23.1752 17.2045L23.1762 17.205Z" fill="#6F674D"/>
<path fill-rule="evenodd" clip-rule="evenodd" d="M13.1016 17.4429C13.1016 17.4429 13.396 17.6637 13.738 17.6551C14.0765 17.6475 14.512 17.2979 14.7129 17.0744C14.8319 16.9441 14.9337 16.8065 15.0441 16.6985C15.1373 16.6055 15.2004 16.5609 15.245 16.4976C15.3083 16.424 15.3753 16.2856 15.4089 16.2407C15.327 16.304 15.208 16.4159 15.0851 16.4902C14.9661 16.5638 14.7092 16.7022 14.605 16.7395C14.5046 16.7768 13.4624 17.3283 13.4624 17.3283L13.1016 17.4429Z" fill="#AC924C"/>
<path fill-rule="evenodd" clip-rule="evenodd" d="M13.5508 14.6937C13.5508 14.6937 13.7144 14.582 14.0309 14.5111C14.3361 14.4375 14.9502 14.3809 14.9502 14.3809L15.4563 14.6017L15.6572 15.3646L15.2892 16.1576L14.8204 16.452L14.288 15.596L13.552 14.6951L13.5508 14.6937Z" fill="#9F8E57"/>
<path fill-rule="evenodd" clip-rule="evenodd" d="M12.89 15.3742L12.7148 15.505C12.7148 15.505 12.7597 15.4231 12.7968 15.1738C12.8338 14.9245 13.0276 14.3178 13.3105 13.968C13.5934 13.6181 13.586 13.6368 13.586 13.6368C13.56 13.632 13.5333 13.6328 13.5076 13.6392C13.4819 13.6456 13.4579 13.6574 13.4371 13.6738C13.4744 13.5914 13.7126 13.297 13.9508 13.1498C14.1891 13.0026 14.282 12.9562 14.5313 13.0762C14.7806 13.1961 14.8439 13.2584 15.0264 13.2511C15.2089 13.2437 15.3649 13.0502 15.3649 13.0502C15.3649 13.0502 15.4022 13.1691 15.2646 13.4447C15.127 13.7202 14.5836 14.282 14.5836 14.282L13.4521 15.056L12.89 15.375V15.3742Z" fill="#EAC970"/>
<path fill-rule="evenodd" clip-rule="evenodd" d="M13.7236 14.6003C13.7236 14.6003 14.5426 14.7119 14.7918 14.4813C14.7992 14.5073 14.8291 14.5073 14.8291 14.526C14.8271 14.54 14.8206 14.553 14.8105 14.563C14.8376 14.5587 14.865 14.5562 14.8924 14.5556C14.9252 14.5654 14.9589 14.5716 14.993 14.5743C15.0205 14.5737 15.0478 14.5711 15.0749 14.5667C15.0723 14.5852 15.0661 14.603 15.0565 14.619C15.0468 14.635 15.0341 14.6489 15.019 14.6599C15.0563 14.6599 15.0926 14.6673 15.0926 14.6969C15.0926 14.7266 15.1 14.8162 15.0553 14.8348C15.0183 14.8451 14.9789 14.8424 14.9437 14.8272C14.9466 14.8977 14.9658 14.9665 14.9996 15.0284C15.0732 15.166 15.2302 15.3228 15.4412 15.2777C15.4412 15.2777 15.5526 15.5456 15.0838 16.141C15.0207 16.2229 14.9535 16.3345 14.8718 16.4275C14.8395 16.4979 14.8148 16.5715 14.7982 16.6471C14.7982 16.6471 15.5911 16.3419 15.818 15.6459C16.0489 14.9462 16.0936 14.2578 16.0489 13.614C16.0413 13.4315 16.0116 13.3015 15.967 13.2083C15.8553 12.9774 15.5425 13.0147 15.4162 13.145C15.2337 13.3275 14.9285 13.7814 14.5043 14.0939C14.0725 14.4065 14.0541 14.4619 13.7227 14.6003H13.7236Z" fill="#D7BC6B"/>
<path fill-rule="evenodd" clip-rule="evenodd" d="M12.7418 15.6052C12.7418 15.6052 12.5855 15.6982 12.5036 16.0468C12.4216 16.404 12.5772 16.8395 12.6672 16.9771C12.7572 17.1148 12.9616 17.4908 13.3855 17.5095C13.4905 17.5089 13.5942 17.4874 13.6907 17.4462C13.8387 17.3783 13.9776 17.292 14.1039 17.1893C14.2864 17.0517 14.4351 16.9327 14.4165 16.9214C14.3718 16.9028 13.2926 16.0095 13.2926 16.0095L12.8868 15.5566L12.7415 15.6057L12.7418 15.6052Z" fill="#585136"/>
<path fill-rule="evenodd" clip-rule="evenodd" d="M13.7647 17.086C13.7647 17.086 13.9843 17.0676 14.1146 16.9857C14.2449 16.9037 13.3516 16.0181 13.3516 16.0181L13.4149 16.9749L13.7647 17.086Z" fill="#453A25"/>
<path fill-rule="evenodd" clip-rule="evenodd" d="M12.8145 15.5376C12.8145 15.5376 12.7029 15.7498 12.7029 15.8057C12.6843 15.988 12.7402 16.5611 12.7848 16.7434C12.8295 16.937 13.0714 17.2309 13.3842 17.2309C13.5775 17.2309 13.8457 17.1119 13.8457 17.0822C13.8457 17.0449 13.5701 17.0086 13.4958 16.87C13.4512 16.7964 13.4325 16.6134 13.4222 16.4284C13.4149 16.3094 13.4149 16.1791 13.4595 16.134C13.5601 16.0224 13.5785 15.7022 13.5785 15.7022L13.9357 15.0386H13.4659L12.9038 15.3884L12.8145 15.5376Z" fill="#84754B"/>
<path fill-rule="evenodd" clip-rule="evenodd" d="M12.6758 15.743C12.6758 15.743 13.0438 15.2555 13.3755 15.1436C13.7071 15.0318 13.8556 15.099 13.8556 15.099L13.662 15.5941L13.3865 15.8993L13.4051 16.0555C13.4051 16.0555 13.3602 16.4687 13.6357 16.7552C13.9112 17.0418 14.1159 17.0307 14.2351 17.0307C14.3543 17.0307 14.6965 16.9301 14.8715 16.517C15.0277 16.1301 15.158 15.6338 14.8455 15.1363C14.54 14.6412 14.0005 14.6221 13.8963 14.6221C13.792 14.6221 12.9734 14.663 12.6758 15.7422V15.743Z" fill="#252211"/>
<path fill-rule="evenodd" clip-rule="evenodd" d="M22.125 17.3987C21.9873 17.3354 22.1176 16.9485 22.2553 16.8293C22.3929 16.71 22.5678 16.5726 22.8733 16.5538C22.9846 16.5464 23.0926 16.617 23.0742 16.6916C23.0482 16.8293 22.8546 17.0228 22.6797 17.1604C22.4378 17.3503 22.2813 17.4693 22.125 17.3987Z" fill="#F7F7E7"/>
<path fill-rule="evenodd" clip-rule="evenodd" d="M14.6835 15.2886C14.7841 15.2812 14.9144 15.3622 14.9404 15.4711C14.9664 15.5901 14.8771 15.8283 14.6835 15.8283C14.5273 15.8283 14.4453 15.6347 14.4453 15.579C14.4471 15.5332 14.4599 15.4886 14.4826 15.4488C14.49 15.4375 14.5086 15.3072 14.6835 15.2886Z" fill="#F8F6DE"/>
<path fill-rule="evenodd" clip-rule="evenodd" d="M13.2316 15.3745C13.2316 15.3745 12.9748 15.4935 12.8558 15.7425C12.7708 15.9264 12.745 16.1321 12.7822 16.3313C12.8008 16.4242 12.8938 16.6549 12.9571 16.7368C13.0204 16.8187 13.106 16.8747 13.1693 16.8671C13.2326 16.8594 13.3626 16.6921 13.3626 16.5918C13.3626 16.4915 13.3702 16.0671 13.4929 15.8362C13.6009 15.6056 13.2324 15.3748 13.2324 15.3748L13.2316 15.3745Z" fill="#D4C38B"/>
<path fill-rule="evenodd" clip-rule="evenodd" d="M13.2675 15.3555C13.2229 15.3815 13.1485 15.4187 13.1669 15.4671C13.1856 15.5117 13.3419 15.5407 13.3978 15.6496C13.4611 15.7612 13.4611 15.8802 13.4424 15.9361C13.4911 15.913 13.5352 15.8815 13.5727 15.8429C13.6547 15.7499 13.755 15.6236 13.8406 15.6236C13.8966 15.6236 13.9523 15.6496 14.0045 15.6496C14.0864 15.6496 14.1681 15.6236 14.1794 15.538C14.1978 15.4264 14.0232 15.3258 13.9226 15.3444C13.9412 15.2708 13.9672 15.1621 13.8853 15.0876C13.8033 15.013 13.5467 15.1435 13.4908 15.1808C13.4348 15.2181 13.2675 15.3557 13.2675 15.3557V15.3555Z" fill="#E2D59D"/>
<path fill-rule="evenodd" clip-rule="evenodd" d="M19.18 23.1749L19.7308 23.0122L19.8871 23.1238C19.8871 23.1238 19.9985 23.3621 20.1736 23.3917C20.1177 23.5107 19.9725 23.6125 19.9801 23.6969C19.9877 23.7813 20.062 23.8458 20.062 23.8458C20.062 23.8458 19.5669 24.6645 20.5421 25.4896C20.3113 25.5826 20.0174 25.7104 19.8611 25.784C19.9725 25.81 20.2107 25.8576 20.3113 25.9479C20.4119 26.0382 20.4119 26.0669 20.5048 26.1228C20.5978 26.1787 20.6535 26.2531 20.6351 26.2864C20.5718 26.2491 20.3596 26.1378 20.3226 26.2418C20.2855 26.3458 19.4033 26.3051 19.4033 26.3051L17.9146 26.5916C17.9146 26.5916 17.9703 26.4427 17.814 26.3051C17.6317 26.1414 17.4085 26.3124 17.1703 26.1301C16.8577 25.8919 16.8464 25.6164 16.7461 25.5124C16.8464 25.4491 17.0513 25.3561 17.5388 25.2916C17.5201 25.2543 17.4568 25.1427 17.4941 25.0423C17.5388 24.9121 17.7247 24.8301 17.669 24.6743C17.751 24.6557 17.788 24.6557 17.9929 24.3988C18.1864 24.142 18.3054 24.0863 18.4543 24.0676C18.6033 24.049 18.6926 24.0676 18.9681 23.8108C19.1614 23.6285 19.0984 23.4722 19.0984 23.4722C19.0984 23.4722 19.2247 23.4312 19.1803 23.1744L19.18 23.1749Z" fill="#CBAC5A"/>
<path fill-rule="evenodd" clip-rule="evenodd" d="M17.5551 23.2574C17.5624 23.2201 17.5924 23.2014 17.7933 23.2201C17.9942 23.2387 19.267 23.1011 19.6132 23.0824C19.963 23.0564 21.1949 23.0748 21.7942 23.2014C22.3936 23.328 23 23.4769 23.294 23.5512C23.5884 23.6332 23.6811 23.6626 23.6698 23.6999C23.6624 23.7372 23.5962 23.7735 23.5582 23.7632C23.5211 23.7558 22.5459 23.458 22.2447 23.3952C21.9434 23.3324 20.9009 23.1644 20.331 23.1744C19.7989 23.182 19.5867 23.1671 19.1365 23.2191C18.6861 23.275 17.9417 23.3493 17.7185 23.3197C17.4977 23.2937 17.5433 23.2937 17.5546 23.2564L17.5551 23.2574Z" fill="#D6BC6F"/>
<path fill-rule="evenodd" clip-rule="evenodd" d="M20.5491 26.1744C20.5491 26.1744 21.3121 26.5875 21.5876 27.0936C21.7885 27.4695 21.4686 27.6557 21.4686 27.6557C21.4686 27.6557 21.9004 27.6557 21.8444 27.8939C21.8184 28.0426 21.1001 28.4444 20.62 28.6566C20.1325 28.8688 20.1512 28.8578 19.9129 28.8948C19.6821 28.9321 19.0494 28.8212 18.9191 29.0065C18.7888 29.1917 18.8455 29.3826 18.8818 29.4122C18.9191 29.4382 19.2206 29.4755 19.2206 29.4755C19.2206 29.4755 19.1573 29.6505 18.5322 29.6691C17.9071 29.6877 17.7506 29.7322 17.7133 29.7994C17.676 29.8624 17.8323 29.8254 18.1191 29.873C18.4056 29.9176 18.8075 29.9466 18.8075 29.9466C18.8075 29.9466 18.6772 30.0582 18.3387 30.1475C17.9515 30.2478 17.3448 30.3411 17.1625 30.4527C17.2555 30.516 17.3934 30.609 17.4569 30.6163C17.3007 30.6536 17.0808 30.7355 17.0438 30.7652C17.0995 30.8025 17.1741 30.8472 17.1741 30.8472C17.1741 30.8472 16.8613 31.223 16.679 31.3162C16.4967 31.4095 15.4472 31.8967 15.086 31.8037C14.1854 31.5655 14.0738 30.5793 13.8542 30.5049C13.523 30.3933 13.3668 30.6163 13.0726 30.46C13.2029 30.3671 13.2738 30.3114 13.4114 30.2481C13.2625 30.1745 12.4921 29.686 12.4921 29.686C12.4116 29.5104 12.3222 29.3391 12.2242 29.1726C12.0753 28.9157 11.8562 28.5732 11.6919 28.2717C11.3347 27.6093 11.316 27.3041 10.9922 26.9283C11.0481 26.8547 11.2414 26.865 11.2414 26.865L13.9548 27.7582L18.766 27.8976L20.0172 26.1113L20.5493 26.1746L20.5491 26.1744Z" fill="#DFC677"/>
<path fill-rule="evenodd" clip-rule="evenodd" d="M13.4258 28.8987C13.4548 28.931 13.4887 28.9587 13.5261 28.9807C13.6193 29.044 13.757 29.1186 13.85 29.2299C13.8873 29.1742 13.9802 29.0737 14.1444 29.2299C14.3085 29.3862 14.5124 29.2748 14.6392 29.3119C14.7695 29.3568 14.7768 29.3752 14.7768 29.3752C14.7768 29.3752 14.8504 29.3119 15.0151 29.2449C15.1156 29.2076 15.2346 29.1816 15.3649 29.1446C15.4839 29.1186 15.6142 29.0813 15.7037 29.0813C15.7856 29.137 16.0796 29.4493 17.2594 28.9883C18.3722 28.5565 18.6288 28.5082 18.815 28.5749C18.8337 28.5302 18.8523 28.4446 19.1389 28.4559C19.1389 28.3369 18.9006 27.9311 18.9006 27.9311L17.5869 27.481H16.8683L14.7135 27.8755L13.5195 28.5567L13.4265 28.9002L13.4258 28.8987Z" fill="#C4A859"/>
<path fill-rule="evenodd" clip-rule="evenodd" d="M12.707 28.1432C12.707 28.1432 12.733 28.3442 13.0309 28.5564C13.3253 28.7683 13.4178 28.8949 13.4178 28.8949C13.4178 28.8949 13.4737 28.8213 13.5183 28.7463C13.563 28.6643 13.6003 28.5713 13.6746 28.5453C13.8235 28.482 14.1621 28.601 14.2367 28.5824C14.3 28.564 14.2813 28.4337 14.3483 28.4337C14.5046 28.4261 14.6049 28.534 14.6609 28.534C14.7168 28.534 14.8542 28.5267 14.8728 28.497C14.8915 28.4673 14.8988 28.1582 15.1111 28.0093C15.3419 27.8456 15.6248 27.9163 15.6999 27.9536C15.6999 28.0093 15.7072 28.1472 15.8561 28.1545C16.005 28.1619 16.0198 28.1359 16.1505 28.1805C16.2813 28.2252 16.4371 28.1732 16.5077 28.3925C16.571 28.3741 16.7199 28.3554 16.6827 28.1432C16.7563 28.0875 16.8205 28.0502 16.9771 27.8307C17.0143 27.775 17.0774 27.7117 17.126 27.6297C17.2562 27.6297 17.4125 27.6037 17.6208 27.786C17.5575 27.8307 17.5202 27.8596 17.5018 27.905C17.5563 27.959 17.606 28.0175 17.6505 28.0799C17.7064 28.1535 17.7437 28.2438 17.8144 28.2625C17.9707 28.3071 18.2275 28.2438 18.5141 28.2625C18.7896 28.2811 19.0202 28.3814 19.1208 28.4447C19.1581 28.4263 19.1581 28.4187 19.2511 28.4374C19.344 28.456 19.4147 28.4634 19.3143 28.3444C19.37 28.3704 19.4333 28.4263 19.4893 28.3704C19.5452 28.3145 19.5896 28.2328 19.7459 28.2141C19.9022 28.1955 19.9581 28.2215 20.0214 28.0579C20.1033 27.8569 19.8205 27.8569 19.8205 27.8569C19.8205 27.8569 19.9507 27.7377 20.096 27.5814C20.2709 27.4178 20.4718 27.2056 20.5202 26.945C20.6021 26.4649 20.1333 26.4019 20.1333 26.4019L17.8593 27.1015L15.0792 26.9637L12.7085 28.1435L12.707 28.1432Z" fill="#927D49"/>
<path fill-rule="evenodd" clip-rule="evenodd" d="M10.6614 21.5748C10.6614 21.5748 10.5878 21.6677 10.5425 21.8873C10.4971 22.1069 10.5165 22.0809 10.4792 22.2372C10.4419 22.3935 9.98384 23.9491 10.1556 24.4739C10.3273 24.9987 10.6246 25.1923 10.8106 25.6165C10.8479 25.7095 10.8842 25.7654 10.9036 25.8473C10.9669 26.1226 10.9112 26.3348 10.9855 26.6103C11.0115 26.7033 11.0788 26.8113 11.1791 26.9229C11.3999 27.1535 11.7598 27.3731 11.9151 27.5294C12.1344 27.7602 12.4472 28.2293 12.8454 28.2737C13.0576 28.2997 13.3591 28.2104 13.6084 28.0618C13.8292 27.9239 13.9656 27.7306 14.1972 27.6202C14.3608 27.5382 14.5357 27.5085 14.692 27.4712C15.0158 27.4079 15.31 27.3976 15.4849 27.4339C15.7528 27.4899 16.3855 27.6835 16.7361 27.6835C17.0101 27.679 17.2825 27.6416 17.5474 27.5718C18.0795 27.4155 18.7233 27.1474 19.1477 27.0284C19.397 26.9548 19.5979 26.9354 19.8028 26.8908C20.1526 26.8088 20.4465 26.6972 20.6141 26.485C20.5024 26.3547 20.3648 26.1538 19.6202 26.1611C18.7756 26.1798 17.8004 26.6486 17.3202 26.7232C16.8401 26.7978 16.6318 26.8608 16.0958 26.6673C15.5703 26.4717 15.5529 26.3424 15.5529 26.3424C15.5529 26.3424 15.0011 25.9565 14.7703 24.9727C14.5394 23.9889 14.7703 23.272 15.3696 22.5907C15.5259 22.4158 15.4886 22.2595 15.4886 22.2595C15.4886 22.2595 15.8831 21.7274 15.7751 21.2291C15.6562 20.734 14.8932 20.8346 14.8932 20.8346L10.6617 21.5748H10.6614Z" fill="#6E6342"/>
<path fill-rule="evenodd" clip-rule="evenodd" d="M11.2989 23.2308C11.2661 23.2925 11.2507 23.3619 11.2543 23.4317C11.2617 23.532 11.2916 23.6623 11.5929 23.9564C11.8497 24.2131 11.7938 24.4996 11.7938 24.4996C11.7938 24.4996 11.9231 24.5256 12.2739 24.3615C12.5494 24.2312 12.6419 24.4621 12.6419 24.4621C12.7221 24.42 12.809 24.3923 12.8988 24.3801C12.9801 24.3726 13.0588 24.3475 13.1294 24.3065C13.1294 24.3065 13.4532 24.6377 13.7361 24.794C13.9929 24.9319 14.1419 25.0248 14.2684 24.9319C14.3874 24.8499 14.3874 24.6824 14.3798 24.608C14.3503 24.5394 14.3129 24.4745 14.2684 24.4145C14.1865 24.2955 14.0562 24.1576 14.0476 24.0465C14.029 23.7899 14.2412 23.4844 14.1963 23.4101C14.1514 23.3358 13.9844 23.3171 13.5712 23.466C13.1434 23.6073 11.2972 23.2315 11.2972 23.2315L11.2989 23.2308Z" fill="#39331F"/>
<path fill-rule="evenodd" clip-rule="evenodd" d="M12.2745 24.8945C12.2745 24.8945 12.0626 24.6936 12.1369 23.7184C12.2269 23.7171 12.3167 23.7258 12.4047 23.7444C12.4047 23.7444 12.5202 24.5 12.2745 24.8945Z" fill="#292311"/>
<path fill-rule="evenodd" clip-rule="evenodd" d="M10.7636 20.8304C10.7931 20.8085 10.8206 20.7839 10.8455 20.7568C10.7719 20.8944 10.4321 21.4452 10.7076 22.3124C10.9831 23.1757 11.6752 23.8195 12.5275 23.8494C13.3798 23.8794 13.8278 23.4623 14.34 22.8372C14.541 22.5879 14.7718 22.2751 14.9764 22.0632C15.2816 21.7317 15.5198 21.6388 15.5198 21.3188C15.5198 20.6638 14.8498 20.3697 13.8636 20.0758C12.8774 19.7819 11.9878 19.8182 11.5263 20.0193C11.0761 20.2387 10.8825 20.4695 10.7633 20.8306L10.7636 20.8304Z" fill="#252211"/>
<path fill-rule="evenodd" clip-rule="evenodd" d="M13.9304 25.1883L14.004 25.151C14.004 25.151 14.0224 24.8566 14.1416 24.8644C14.2606 24.8831 14.3165 25.0396 14.3052 25.0953C14.2979 25.151 14.2682 25.2442 14.149 25.2329C13.9927 25.2366 13.9297 25.1883 13.9297 25.1883H13.9304Z" fill="#3F3824"/>
<path fill-rule="evenodd" clip-rule="evenodd" d="M13.5977 23.9381C13.5977 23.9381 13.6713 23.9121 13.7613 24.0014C13.8349 24.0014 14.1558 23.9641 14.2564 24.0274C14.357 24.0907 14.3866 24.1463 14.3866 24.1463C14.3866 24.1463 14.0108 24.2283 13.8059 24.1463C13.5977 24.0757 13.5977 23.9381 13.5977 23.9381Z" fill="#2D2815"/>
<path fill-rule="evenodd" clip-rule="evenodd" d="M15.257 23.9938C15.257 23.9752 15.0561 23.8376 14.8439 23.7927C14.8067 23.7853 14.799 23.8113 14.7703 23.8113C14.7517 23.804 14.7443 23.748 14.7443 23.748L14.6237 23.8116C14.6237 23.8116 14.605 23.8376 14.6683 23.8852C14.724 23.9298 14.8172 23.9671 14.8432 24.0414C14.8692 24.1157 14.8692 24.1417 14.8805 24.153C14.8878 24.1603 15.0181 24.153 15.0814 24.1157C15.1447 24.0784 15.2639 24.0176 15.2563 23.9931L15.257 23.9938Z" fill="#82764F"/>
<path fill-rule="evenodd" clip-rule="evenodd" d="M13.375 24.7489C13.375 24.7489 13.412 24.4923 13.6615 24.481C13.9182 24.4623 13.9667 24.7116 13.9667 24.7116L13.8178 24.8605C13.8178 24.8569 13.7062 24.7006 13.3762 24.7489H13.375Z" fill="#2D2816"/>
<path fill-rule="evenodd" clip-rule="evenodd" d="M14.9935 23.6437C14.9935 23.6437 14.8557 23.7927 14.5507 23.8373C14.5247 23.8 14.4688 23.7257 14.5507 23.6066C14.6327 23.4876 14.7256 23.4503 14.8186 23.4874C14.8596 23.494 14.8979 23.5123 14.9289 23.54C14.9599 23.5677 14.9823 23.6037 14.9935 23.6437Z" fill="#574F35"/>
<path fill-rule="evenodd" clip-rule="evenodd" d="M15.5552 23.8259C15.5628 23.7886 15.5368 23.7813 15.5552 23.7626C15.5736 23.744 15.6745 23.7069 15.6931 23.7253C15.7005 23.7329 15.6931 23.7626 15.6931 23.7989C15.6931 23.8352 15.6931 23.8725 15.6745 23.8993C15.6485 23.9365 15.5741 23.9552 15.5368 23.9441C15.4995 23.9331 15.4922 23.8809 15.4922 23.8706C15.5106 23.8632 15.5552 23.8445 15.5552 23.8259ZM16.1907 23.4241C16.1907 23.4054 16.2539 23.3682 16.2912 23.3682C16.3469 23.3682 16.3469 23.4128 16.3545 23.4241C16.3729 23.4315 16.3729 23.4165 16.3916 23.4501C16.4102 23.4837 16.4365 23.5431 16.4176 23.5804C16.3987 23.6176 16.3246 23.6434 16.3062 23.636C16.2802 23.6174 16.1983 23.4501 16.1907 23.4241Z" fill="#82764F"/>
<path fill-rule="evenodd" clip-rule="evenodd" d="M14.9141 23.9119C14.9141 23.9119 14.996 23.9303 15.1076 24.0235C15.0703 24.0495 15.0144 24.0792 15.0144 24.0792C15.0144 24.0792 15.007 23.9936 14.9141 23.9116V23.9119Z" fill="#6E6342"/>
<path fill-rule="evenodd" clip-rule="evenodd" d="M14.7295 23.093C14.7109 23.0746 14.7852 23.03 14.8298 23.0373C14.8745 23.0447 14.8931 23.0746 14.9415 23.082C14.9898 23.0894 14.9974 23.0634 15.0151 23.0447C15.0327 23.0261 15.097 23.0373 15.1081 23.0447C15.1149 23.0529 15.1212 23.0616 15.1267 23.0707C15.1275 23.0566 15.1312 23.0427 15.1376 23.03C15.1439 23.0174 15.1529 23.0062 15.1638 22.9971C15.178 22.9866 15.1945 22.9795 15.2119 22.9763C15.2293 22.973 15.2473 22.9738 15.2643 22.9785C15.2717 23.0045 15.309 23.0975 15.3016 23.1161C15.2943 23.1347 15.1827 23.161 15.1638 23.1421C15.1824 23.187 15.2643 23.28 15.2754 23.2984C15.2864 23.3168 15.1934 23.3617 15.1564 23.3543C15.1044 23.3507 14.7842 23.1644 14.7285 23.0938L14.7295 23.093ZM15.217 22.4752C15.2101 22.4565 15.1969 22.4407 15.1797 22.4306C15.1537 22.4232 15.0681 22.4306 15.0681 22.4752C15.0681 22.5199 15.1417 22.7697 15.2244 22.8997C15.3176 23.03 15.3806 23.1377 15.4439 23.1676C15.4638 23.1767 15.4864 23.1779 15.5071 23.1709C15.5278 23.164 15.5451 23.1495 15.5556 23.1303C15.5629 23.1117 15.5816 22.974 15.5742 22.6502C15.5669 22.3263 15.5556 22.0137 15.5369 21.9951C15.5183 21.9764 15.4439 21.9767 15.4179 22.0137C15.3919 22.0508 15.2244 22.4195 15.2168 22.4752H15.217Z" fill="#585136"/>
<path fill-rule="evenodd" clip-rule="evenodd" d="M14.8882 24.381C14.8882 24.381 14.7579 24.2991 14.6313 24.355C14.5123 24.4109 14.5196 24.6304 14.5196 24.6304C14.5464 24.6409 14.5753 24.6446 14.6039 24.6414C14.6325 24.6382 14.6598 24.628 14.6835 24.6118C14.7655 24.5561 14.8695 24.4631 14.8882 24.3812V24.381Z" fill="#574F35"/>
<path fill-rule="evenodd" clip-rule="evenodd" d="M15.1322 24.6746C15.1248 24.601 15.0586 24.601 15.0586 24.563C15.0632 24.5448 15.0737 24.5287 15.0885 24.5172C15.1033 24.5057 15.1216 24.4996 15.1403 24.4997C15.1776 24.4997 15.2139 24.5443 15.2595 24.5733C15.3042 24.5993 15.3711 24.6469 15.3785 24.7036C15.3859 24.7602 15.3049 24.9155 15.2149 24.9155C15.1248 24.9155 15.1516 24.748 15.1329 24.6736L15.1322 24.6746ZM15.8505 24.574C15.8505 24.574 15.7016 24.6187 15.7127 24.574C15.7237 24.5294 15.7575 24.5183 15.8059 24.5183C15.8304 24.4926 15.8635 24.4767 15.8989 24.4734C15.9191 24.4724 15.939 24.4791 15.9546 24.4921C15.9546 24.4921 16.0551 24.4474 16.0848 24.4734C16.1145 24.4994 16.0924 24.4994 16.1108 24.5294C16.1343 24.5626 16.1496 24.6008 16.1557 24.641C16.1557 24.6707 16.0441 24.734 15.9546 24.7229C15.8505 24.7006 15.8689 24.5927 15.8505 24.574ZM16.7175 24.4064C16.7175 24.4064 16.7622 24.4325 16.7251 24.4624C16.6991 24.4884 16.5689 24.536 16.457 24.5443C16.3454 24.5443 16.245 24.5627 16.245 24.5257C16.245 24.4886 16.338 24.4141 16.3937 24.3954C16.4049 24.3814 16.4191 24.3701 16.4352 24.3624C16.4513 24.3547 16.469 24.3507 16.4869 24.3508C16.5316 24.3508 16.7063 24.3321 16.7548 24.3247C16.7995 24.3171 16.8368 24.3431 16.8105 24.3804C16.7995 24.4064 16.7175 24.4064 16.7175 24.4064ZM16.9744 23.2573C16.9744 23.2573 16.9185 23.3763 16.8554 23.3763C16.7921 23.3689 16.7921 23.3502 16.7921 23.3316C16.7921 23.3056 16.8554 23.2386 16.8478 23.22C16.8294 23.22 16.7845 23.22 16.7921 23.1753C16.7921 23.138 16.8554 23.0934 16.9111 23.1017C16.9532 23.0671 17.0056 23.0475 17.06 23.046C17.1233 23.046 17.179 23.0644 17.179 23.1017C17.179 23.139 17.1054 23.2207 17.0784 23.2396C17.0487 23.2693 17.0114 23.2887 16.9744 23.258V23.2573ZM16.1258 25.4568C16.1258 25.4568 16.0522 25.4644 16.0522 25.5014C16.0522 25.5201 16.0706 25.5201 16.0968 25.509C16.112 25.5082 16.1269 25.5056 16.1415 25.5014C16.1489 25.509 16.1489 25.5461 16.2048 25.5461C16.2507 25.5399 16.295 25.5247 16.3351 25.5014C16.3797 25.483 16.417 25.4641 16.417 25.4278C16.3984 25.3645 16.3611 25.3346 16.3054 25.3346C16.2768 25.3328 16.2484 25.3392 16.2234 25.3532C16.2234 25.3532 16.2048 25.3159 16.1415 25.3532C16.0782 25.3905 16.0856 25.3905 16.1042 25.4092C16.1376 25.4388 16.1265 25.4582 16.1265 25.4582L16.1258 25.4568ZM15.7053 25.8439C15.7053 25.8253 15.7983 25.788 15.8243 25.7993C15.8503 25.8066 15.9246 25.9479 15.9246 25.9629C15.9246 25.9815 15.8316 26.0262 15.7943 26.0262C15.7571 26.0262 15.694 25.9629 15.694 25.9526C15.694 25.9452 15.7387 25.9342 15.7387 25.9266C15.7497 25.9082 15.7053 25.8633 15.7053 25.8446V25.8439ZM15.4109 25.3005C15.4295 25.2931 15.4295 25.2745 15.4555 25.2558C15.4637 25.2504 15.473 25.2469 15.4827 25.2456C15.4924 25.2444 15.5022 25.2453 15.5115 25.2485C15.518 25.2368 15.5271 25.2267 15.5381 25.2189C15.549 25.2111 15.5616 25.2059 15.5748 25.2036C15.6194 25.1962 15.6567 25.2036 15.6484 25.2222C15.6484 25.2781 15.6857 25.3152 15.6857 25.3598C15.6857 25.4045 15.6597 25.4604 15.5667 25.4977C15.4737 25.5237 15.3471 25.5237 15.3285 25.5164C15.3098 25.509 15.2912 25.4344 15.3098 25.3971C15.3285 25.3598 15.3805 25.3191 15.4104 25.3005H15.4109Z" fill="#82764F"/>
<path fill-rule="evenodd" clip-rule="evenodd" d="M15.5318 25.3257C15.5318 25.3257 15.4684 25.363 15.4684 25.3816C15.4628 25.3996 15.4603 25.4184 15.4611 25.4373C15.4611 25.4483 15.5431 25.4299 15.5541 25.4186C15.5578 25.4113 15.5318 25.3451 15.5318 25.3257Z" fill="#6E6342"/>
<path fill-rule="evenodd" clip-rule="evenodd" d="M14.9768 25.1508C15.0138 25.1584 15.0771 25.1508 15.1254 25.1694C15.1627 25.1881 15.1887 25.2254 15.1514 25.27C15.1141 25.3146 15.0778 25.3816 14.9952 25.3703C14.9022 25.3629 14.8129 25.3146 14.8129 25.2773C14.8113 25.2538 14.8145 25.2301 14.8221 25.2078C14.8298 25.1854 14.8418 25.1648 14.8575 25.1471C14.8948 25.1174 14.9132 25.1361 14.9765 25.1508H14.9768Z" fill="#585136"/>
<path fill-rule="evenodd" clip-rule="evenodd" d="M14.9321 25.1885C14.9321 25.1885 14.8131 25.2815 14.7832 25.3264C14.7459 25.371 14.5636 25.6016 14.5079 25.6499C14.5264 25.6173 14.5475 25.5862 14.571 25.557C14.4974 25.604 14.4422 25.675 14.4147 25.7579C14.3701 25.8958 14.6642 25.9701 14.8575 26.026C15.0509 26.082 15.1257 26.0996 15.1257 26.0996C15.0545 25.9927 14.9934 25.8793 14.9432 25.7611C14.8696 25.5862 14.8315 25.5675 14.8799 25.4856C14.9172 25.4036 14.9731 25.3479 14.9731 25.2846C14.9508 25.2258 14.9321 25.1885 14.9321 25.1885Z" fill="#574F35"/>
<path fill-rule="evenodd" clip-rule="evenodd" d="M10.688 25.4825C10.7151 25.4875 10.7428 25.4875 10.7699 25.4825C10.8256 25.4749 11.4063 25.2617 12.013 25.3C12.4672 25.3275 12.9174 25.4014 13.3565 25.5208C14.1194 25.7218 15.0684 26.12 15.6825 26.3471C15.8461 26.4102 16.0063 26.5221 16.1241 26.5665C16.5931 26.749 16.6115 26.749 16.887 26.7973C17.2109 26.842 17.5421 26.734 17.8882 26.6597C18.3124 26.5665 19.0381 26.5218 19.6745 26.4288C19.8803 26.4003 20.0833 26.3543 20.2812 26.2912C20.2812 26.2912 19.7751 26.7973 18.5617 26.9796C18.0712 27.0541 17.5728 27.0604 17.0806 26.9983C16.6935 26.961 16.4369 26.9051 16.2433 26.8494C16.0237 26.7861 15.5733 26.6185 15.0188 26.4813C14.6317 26.3808 14.1999 26.3064 13.7051 26.2134C12.4843 25.9899 11.1595 25.7333 10.6875 25.484L10.688 25.4825Z" fill="#252211"/>
<path fill-rule="evenodd" clip-rule="evenodd" d="M9.31981 23.1826C9.02541 23.4319 8.7131 23.6701 8.40816 23.9007L7.4889 24.607C7.17635 24.8376 6.87115 25.0759 6.55836 25.3067C6.24556 25.5376 5.93325 25.7569 5.60156 25.9691C5.89596 25.7199 6.20827 25.489 6.52082 25.2621C6.83337 25.0351 7.15746 24.8126 7.45897 24.5825L8.37823 23.8752C8.69446 23.6446 8.99965 23.4064 9.31981 23.1831V23.1826ZM7.69351 25.7878C7.69351 25.7878 8.0247 25.5123 8.43784 25.1254C8.95132 24.6455 9.58035 24.0312 9.78128 23.9198L7.69326 25.7881L7.69351 25.7878Z" fill="#CFB66C"/>
<path fill-rule="evenodd" clip-rule="evenodd" d="M7.69141 25.7874C7.85529 25.6238 8.03021 25.4638 8.20513 25.3073L8.47304 25.0767C8.55498 25.0031 8.64821 24.9204 8.7299 24.8385C8.89354 24.6749 9.05374 24.4997 9.21738 24.3324C9.29849 24.2482 9.38424 24.1687 9.47424 24.0941C9.51924 24.0543 9.56921 24.0205 9.62292 23.9936C9.66781 23.9676 9.71614 23.92 9.77919 23.9116C9.74215 23.9676 9.6975 23.9936 9.66021 24.0419C9.61556 24.0792 9.57826 24.1238 9.54122 24.1609C9.45928 24.2428 9.3663 24.3172 9.28436 24.3917C9.10943 24.5407 8.92715 24.6861 8.75223 24.8419C8.5773 24.9977 8.41367 25.1658 8.2385 25.322C8.04886 25.4822 7.87393 25.6385 7.69141 25.7882V25.7874ZM9.91707 24.2988C9.91707 24.2988 8.7039 25.4862 8.45439 25.6795L9.91707 24.2988Z" fill="#CFB66C"/>
<path fill-rule="evenodd" clip-rule="evenodd" d="M9.91971 24.2988C9.81057 24.4252 9.69356 24.5445 9.56937 24.656L9.20137 25.0059C9.08239 25.1249 8.97051 25.2441 8.84417 25.3631C8.7139 25.4747 8.59491 25.5839 8.45703 25.6869L8.81424 25.3371C8.93347 25.2181 9.06374 25.1178 9.19033 24.9985L9.54754 24.6487C9.6702 24.526 9.78944 24.4068 9.91971 24.2988ZM9.9754 24.9426C9.86357 25.2547 9.7318 25.5593 9.5809 25.8545C9.26835 26.4798 8.79952 27.2612 8.59466 27.6597L9.9754 24.9426Z" fill="#CFB66C"/>
<path fill-rule="evenodd" clip-rule="evenodd" d="M9.97471 24.9429C9.97471 25.0805 9.93742 25.1997 9.89277 25.3187C9.84925 25.4378 9.79962 25.5546 9.7441 25.6686C9.68816 25.7802 9.62487 25.8994 9.56157 26.0074C9.49827 26.1153 9.42394 26.2267 9.368 26.3386L8.99215 27.001C8.86188 27.2218 8.73529 27.4438 8.59766 27.656C8.69064 27.4178 8.81723 27.1945 8.93646 26.975C9.06673 26.7542 9.18572 26.5334 9.30446 26.305C9.36244 26.1911 9.41459 26.0745 9.46074 25.9554C9.51643 25.8361 9.57212 25.7245 9.61702 25.6166C9.67271 25.4976 9.71736 25.3857 9.77329 25.278C9.83634 25.1624 9.8886 25.0508 9.97422 24.9429H9.97471Z" fill="#CFB66C"/>
<path fill-rule="evenodd" clip-rule="evenodd" d="M11.2986 27.9946C11.2986 27.9946 10.9306 28.4821 10.9674 29.0999C11.0678 28.7763 11.1944 28.2812 11.2986 27.9946ZM11.6485 28.4833C11.6485 28.4833 11.5182 29.8081 11.4103 30.4595C11.5628 29.7066 11.5925 29.7699 11.6485 28.4833ZM14.0861 30.5378C14.0861 30.5378 13.5353 32.157 13.524 32.6069C13.6432 32.1442 13.8739 31.1989 14.0861 30.5365V30.5378Z" fill="#DEC270"/>
<path fill-rule="evenodd" clip-rule="evenodd" d="M15.375 27.894C15.375 27.894 16.2683 29.3678 16.9383 30.6256C16.757 29.9926 16.3399 28.8317 15.375 27.894Z" fill="#CBAF59"/>
<path fill-rule="evenodd" clip-rule="evenodd" d="M17.7734 30.064C18.2639 30.9309 18.7061 31.8242 19.0982 32.7398C19.0239 32.1071 18.8227 31.0242 17.7734 30.064Z" fill="#E3C677"/>
<path fill-rule="evenodd" clip-rule="evenodd" d="M24.8309 32.2367C24.9795 32.1437 25.2737 31.6373 25.5306 31.511C25.7872 31.3807 25.9807 31.3547 26.2116 31.0978C26.4422 30.8297 26.506 30.666 27.0116 30.4541C27.7189 30.1486 27.2324 29.7541 27.2324 29.7541C27.3103 29.6776 27.3936 29.6068 27.4817 29.5422C27.6642 29.4045 27.8762 29.237 27.8578 28.9428C27.8318 28.448 27.7388 27.7296 27.333 27.3128C27.7275 27.2309 28.4829 27.1752 28.9522 27.0562C29.4954 26.9183 29.7449 26.7248 29.7449 26.7248C29.7449 26.7248 29.4323 26.1926 29.9384 25.6568C30.4445 25.121 30.8577 24.8009 31.1629 24.2015C30.813 24.1569 30.2797 23.9709 28.9186 24.4881C28.9921 24.5226 29.063 24.5624 29.1308 24.607C29.1308 24.607 28.2935 24.8379 27.9883 25.0948C27.4559 25.5449 27.3889 25.9134 26.8122 26.1889C26.2354 26.4645 25.6547 26.3899 25.1748 26.6131C24.695 26.8364 24.624 27.0263 24.4489 27.1082C24.4862 27.1529 24.4415 27.2272 24.5122 27.2905C24.4675 27.3538 24.207 27.778 23.9428 27.778C23.9688 27.8786 24.192 27.9529 24.192 27.9529C24.192 27.9529 24.0284 28.0721 23.6116 28.1018C23.8235 28.3226 24.0247 28.5633 24.5792 28.9131C24.5345 29.0061 24.3483 29.144 24.4229 29.3189C24.5048 29.4938 24.7173 29.7321 25.5654 29.9256C25.1336 29.944 24.6277 30.0446 23.9462 29.9516C23.2652 29.8697 23.1535 29.8214 22.733 29.9256C22.7777 29.9703 22.8967 29.9703 23.0009 30.0893C22.8893 30.0966 22.1896 30.0073 21.9514 30.3201C21.7021 30.6437 21.5942 31.1761 21.6128 31.5333C21.4826 31.5966 21.356 31.7082 21.4193 31.9391C21.4826 32.1699 21.8138 32.2443 22.026 32.3893C22.238 32.5455 22.2566 32.6012 22.4578 32.5642C22.6697 32.5195 22.9823 32.3076 23.1648 32.3076C23.3473 32.3076 23.4774 32.4452 23.4774 32.4452C23.4774 32.4452 23.9724 32.207 24.0208 32.2516C24.0654 32.2963 24.0281 32.5828 24.0765 32.6275C24.1255 32.6611 24.6832 32.3299 24.8321 32.2367H24.8309Z" fill="#ECD592"/>
<path fill-rule="evenodd" clip-rule="evenodd" d="M35.6495 17.3432C33.3235 11.3365 27.5734 10.2236 27.5734 10.2236H11.1682L11.2315 16.342H14.4986V30.0044H11.168V36.1117H27.1193C30.9637 36.1117 34.0453 32.2484 34.0453 32.2484C38.9802 25.2444 35.6493 17.3432 35.6493 17.3432H35.6495ZM27.2049 28.1322C27.2049 28.1322 25.9537 29.9374 24.5924 29.9374H21.8692L21.8046 16.357H25.2994C25.2994 16.357 26.9186 16.6955 28.0498 19.8998C28.0498 19.8998 29.5496 24.4876 27.2049 28.1322Z" fill="white" fill-opacity="0.8"/>
</svg>
