<svg width="48" height="49" viewBox="0 0 48 49" fill="none" xmlns="http://www.w3.org/2000/svg">
<rect x="1" y="1.5" width="45.9985" height="46" rx="22.9992" stroke="#5B83BF" stroke-width="2"/>
<g clip-path="url(#clip0_1032_79)">
<path d="M30.2459 20.6927C30.9771 20.6927 31.5699 20.0999 31.5699 19.3687C31.5699 18.6375 30.9771 18.0447 30.2459 18.0447C29.5146 18.0447 28.9219 18.6375 28.9219 19.3687C28.9219 20.0999 29.5146 20.6927 30.2459 20.6927Z" fill="white"/>
<path fill-rule="evenodd" clip-rule="evenodd" d="M19.0156 25.0333C19.0156 28.0757 21.4899 30.5499 24.5323 30.5499C27.5747 30.5499 30.049 28.0757 30.049 25.0333C30.049 21.9908 27.5747 19.5166 24.5323 19.5166C21.4899 19.5166 19.0156 21.9908 19.0156 25.0333ZM21.7734 25.0332C21.7734 23.512 23.0106 22.2749 24.5318 22.2749C26.053 22.2749 27.2901 23.512 27.2901 25.0332C27.2901 26.5545 26.053 27.7916 24.5318 27.7916C23.0106 27.7916 21.7734 26.5545 21.7734 25.0332Z" fill="white"/>
<path fill-rule="evenodd" clip-rule="evenodd" d="M19.0167 36.0667H30.05C32.8856 36.0667 35.5667 33.3856 35.5667 30.55V19.5167C35.5667 16.6811 32.8856 14 30.05 14H19.0167C16.1811 14 13.5 16.6811 13.5 19.5167V30.55C13.5 33.3856 16.1811 36.0667 19.0167 36.0667ZM16.2578 19.5164C16.2578 18.2269 17.7266 16.7581 19.0161 16.7581H30.0495C31.339 16.7581 32.8078 18.2269 32.8078 19.5164V30.5497C32.8078 31.8392 31.339 33.3081 30.0495 33.3081H19.0161C17.7018 33.3081 16.2578 31.8641 16.2578 30.5497V19.5164Z" fill="white"/>
</g>
<defs>
<clipPath id="clip0_1032_79">
<rect width="23.9985" height="24" fill="white" transform="translate(12 12.5)"/>
</clipPath>
</defs>
</svg>
