<svg width="54" height="43" viewBox="0 0 54 43" fill="none" xmlns="http://www.w3.org/2000/svg">
<path d="M40.4708 0.654541C34.0714 10.5463 30.5357 15.4791 26.9708 15.4791C23.4058 15.4791 19.8701 10.5463 13.5 0.654541C19.8701 10.5463 22.9091 15.7662 21.1266 18.5067C19.3442 21.2471 12.7695 21.5342 0 21.5342C13.237 21.5342 19.8117 21.8213 21.3019 24.8489C22.7045 27.6676 19.6656 32.8614 13.5 42.4139C19.8993 32.5221 23.4351 27.5893 27 27.5893C30.5649 27.5893 34.1007 32.5221 40.5 42.4139C33.7208 31.8957 30.7403 26.6758 33.2532 24.0659C35.474 21.7691 42.0195 21.5342 54 21.5342C40.5 21.5342 33.9253 21.221 32.6104 18.0108C31.4123 15.1398 34.4513 9.97209 40.4708 0.654541Z" fill="white"/>
</svg>
