<svg width="48" height="49" viewBox="0 0 48 49" fill="none" xmlns="http://www.w3.org/2000/svg">
<rect x="0.996948" y="1.5" width="45.9985" height="46" rx="22.9992" stroke="#5B83BF" stroke-width="2"/>
<g clip-path="url(#clip0_1032_92)">
<path d="M34.0009 18.3007C33.2492 18.6268 32.4543 18.8424 31.6409 18.9407C32.499 18.428 33.1421 17.6215 33.4509 16.6707C32.6444 17.1508 31.7616 17.489 30.8409 17.6707C30.2254 17.0033 29.4058 16.559 28.5107 16.4075C27.6155 16.2561 26.6954 16.4061 25.8946 16.8339C25.0939 17.2617 24.4578 17.9432 24.0861 18.7715C23.7144 19.5998 23.6281 20.5281 23.8409 21.4107C22.2103 21.3282 20.6153 20.9037 19.1595 20.1646C17.7037 19.4255 16.4197 18.3884 15.3909 17.1207C15.03 17.7509 14.8404 18.4645 14.8409 19.1907C14.8396 19.8651 15.0051 20.5293 15.3226 21.1243C15.6401 21.7192 16.0999 22.2264 16.6609 22.6007C16.0088 22.583 15.3707 22.408 14.8009 22.0907V22.1407C14.8057 23.0856 15.1368 23.9998 15.7382 24.7287C16.3395 25.4575 17.1741 25.9563 18.1009 26.1407C17.7441 26.2493 17.3737 26.3065 17.0009 26.3107C16.7427 26.3077 16.4853 26.2843 16.2309 26.2407C16.4948 27.0535 17.0055 27.7638 17.6919 28.2729C18.3784 28.7819 19.2064 29.0642 20.0609 29.0807C18.6181 30.216 16.8367 30.8356 15.0009 30.8407C14.6666 30.8418 14.3326 30.8218 14.0009 30.7807C15.8753 31.991 18.0597 32.6334 20.2909 32.6307C21.8305 32.6467 23.358 32.3557 24.784 31.7748C26.21 31.1938 27.5059 30.3346 28.5961 29.2472C29.6862 28.1598 30.5488 26.8661 31.1334 25.4416C31.718 24.0171 32.0129 22.4904 32.0009 20.9507C32.0009 20.7807 32.0009 20.6007 32.0009 20.4207C32.7856 19.8355 33.4623 19.1181 34.0009 18.3007Z" fill="white"/>
</g>
<defs>
<clipPath id="clip0_1032_92">
<rect width="23.9985" height="24" fill="white" transform="translate(11.9969 12.5)"/>
</clipPath>
</defs>
</svg>
