<svg width="46" height="47" viewBox="0 0 46 47" fill="none" xmlns="http://www.w3.org/2000/svg">
<path fill-rule="evenodd" clip-rule="evenodd" d="M8.42861 6.20387L0.0376259 23.8256C0.00407244 23.8894 -0.00748384 23.9625 0.00474822 24.0336C0.0169803 24.1047 0.0523176 24.1698 0.105283 24.2187L22.7561 45.9344C22.8213 45.9932 22.9059 46.0257 22.9937 46.0257C23.0814 46.0257 23.1661 45.9932 23.2312 45.9344L45.8956 24.2187C45.948 24.1694 45.983 24.1044 45.9952 24.0335C46.0074 23.9625 45.9962 23.8896 45.9633 23.8256L37.5723 6.20387C37.55 6.14258 37.5089 6.08989 37.4549 6.05331C37.4009 6.01673 37.3368 5.99812 37.2716 6.00015H8.7263C8.66197 6.00191 8.59949 6.02202 8.54621 6.05812C8.49294 6.09421 8.45109 6.14478 8.4256 6.20387H8.42861Z" fill="#50AF95"/>
<path fill-rule="evenodd" clip-rule="evenodd" d="M25.916 25.6284C25.7536 25.6419 24.9132 25.696 23.0421 25.696C21.5514 25.696 20.4937 25.6555 20.114 25.6284C14.3534 25.3713 10.0564 24.3677 10.0564 23.1747C10.0564 21.9817 14.3534 20.9653 20.114 20.7082V24.6256C20.4899 24.6526 21.5649 24.7203 23.0556 24.7203C24.8448 24.7203 25.7393 24.6391 25.9025 24.6256V20.7082C31.6496 20.9653 35.9466 21.9689 35.9466 23.1612C35.9466 24.3534 31.6616 25.3713 25.916 25.6284ZM25.916 20.315V16.8036H33.9409V11.4497H12.0899V16.8036H20.114V20.315C13.5941 20.6157 8.6875 21.9005 8.6875 23.4596C8.6875 25.0187 13.5941 26.2929 20.114 26.6042V37.842H25.916V26.6042C32.4224 26.3035 37.3162 25.018 37.3162 23.4731C37.3162 21.9283 32.4224 20.6127 25.916 20.3158V20.315Z" fill="white"/>
</svg>
