<svg width="46" height="46" viewBox="0 0 46 46" fill="none" xmlns="http://www.w3.org/2000/svg">
<path d="M23.2401 3.83331V17.9437C23.2401 18.0036 23.1802 18.0635 23.1203 18.0635C22.701 18.2466 22.3416 18.428 21.9223 18.6094C21.3833 18.8507 20.7843 19.0937 20.2452 19.3967L18.2685 20.3037L16.6513 21.031L14.6746 21.9398C14.1355 22.1828 13.5964 22.4241 12.9975 22.727C12.5782 22.9084 12.099 23.1514 11.6797 23.3328C11.6198 23.3328 11.6198 23.3927 11.5599 23.3328H11.5C11.6797 23.0299 11.8594 22.7869 12.0391 22.4857C12.9975 20.8496 14.0157 19.2153 14.9741 17.5792C15.9924 15.825 17.0706 14.0674 18.0888 12.3115C19.0472 10.6771 20.0056 9.04277 20.964 7.4683C21.6827 6.25492 22.4015 5.10658 23.0604 3.89321C23.1802 3.89321 23.1802 3.83331 23.2401 3.83331C23.2401 3.83331 23.1802 3.83331 23.2401 3.83331Z" fill="#8C8C8C"/>
<path d="M34.8599 23.333C33.9614 23.9388 33.003 24.483 32.1046 25.0273C29.1695 26.7848 26.2944 28.4808 23.3594 30.2367C23.2995 30.2367 23.2995 30.2966 23.2396 30.2966C23.1797 30.2966 23.1797 30.2367 23.1797 30.2367V18.0636C23.1797 18.0037 23.2396 18.0037 23.2995 18.0037C23.5391 18.1235 23.7787 18.2467 24.0782 18.3665C24.7969 18.7311 25.5756 19.034 26.2944 19.3968C26.9533 19.6997 27.5523 20.0026 28.2112 20.2439C28.87 20.5468 29.469 20.8498 30.1279 21.1527C30.667 21.3957 31.266 21.637 31.8051 21.9399C32.3442 22.1829 32.9431 22.4242 33.4822 22.7271C33.9015 22.9086 34.3208 23.1516 34.8 23.333C34.8 23.2731 34.8 23.333 34.8599 23.333Z" fill="#141414"/>
<path d="M23.2388 42.1666C23.1789 42.1666 23.2388 42.1666 23.2388 42.1666C23.1789 42.1666 23.1789 42.1666 23.119 42.105C21.921 40.4107 20.783 38.7746 19.585 37.0786L15.9911 31.9924C14.853 30.358 13.655 28.7236 12.517 27.0259L11.6185 25.7544C11.6185 25.6945 11.5586 25.6945 11.5586 25.6346C11.6185 25.6346 11.6185 25.6945 11.6784 25.6945C13.2957 26.6631 14.9728 27.6318 16.5901 28.6004C18.4469 29.7522 20.3637 30.8423 22.2205 31.9924C22.52 32.1738 22.8794 32.3552 23.1789 32.5366C23.2388 32.5366 23.2388 32.5982 23.2388 32.6581V42.1666Z" fill="#8C8C8C"/>
<path d="M11.5 22.6991C11.5 22.6392 11.5 22.6392 11.5 22.6991C12.099 22.3961 12.698 22.1548 13.297 21.8519L15.633 20.7618C16.232 20.4588 16.831 20.2175 17.43 19.9146C18.2685 19.4902 19.167 19.1274 20.0056 18.703C20.6046 18.4599 21.2036 18.157 21.8025 17.9157C22.2218 17.7343 22.6411 17.5529 23.0604 17.3099C23.1203 17.3099 23.1203 17.25 23.1802 17.25V29.6028C23.1203 29.6644 23.1203 29.6028 23.0604 29.6028C22.8807 29.483 22.701 29.4214 22.5812 29.2999L11.6198 22.7607C11.5599 22.6991 11.5 22.6991 11.5 22.6991ZM34.6807 24.941C34.6807 25.0009 34.6807 25.0009 34.6208 25.0608C31.1467 30.0272 27.6726 34.932 24.1985 39.8985C23.8391 40.4427 23.4797 40.927 23.1203 41.473V31.843C23.899 31.3587 24.6777 30.8743 25.4564 30.4516L34.6208 25.0009C34.6208 24.941 34.6807 24.941 34.6807 24.941Z" fill="#3C3C3B"/>
<path d="M23.2383 18.0037V3.89679L34.7388 23.1533C34.7987 23.2132 34.8586 23.2731 34.8586 23.3347C34.619 23.2149 34.3794 23.0917 34.0799 22.9719C33.7804 22.8504 33.4809 22.669 33.1814 22.5475C33.0017 22.4876 32.822 22.3661 32.5825 22.3045C32.283 22.1847 31.9236 22.0015 31.6241 21.8817C31.4444 21.8201 31.2647 21.7003 31.085 21.6387L29.8271 21.0945C29.5875 20.973 29.4078 20.9131 29.1682 20.7916C28.8687 20.6701 28.5693 20.4887 28.2698 20.3672C28.0901 20.3073 27.9104 20.1858 27.7307 20.1259L26.4728 19.5799C26.2332 19.4601 26.0535 19.3985 25.8139 19.277C25.5144 19.1572 25.2149 18.9741 24.9154 18.8526C24.7357 18.7328 24.4962 18.6712 24.3165 18.5514L23.2383 18.0055V18.0037Z" fill="#343434"/>
</svg>
